<?xml version="1.0" standalone="no"?>
<!DOCTYPE svg PUBLIC "-//W3C//DTD SVG 20010904//EN"
 "http://www.w3.org/TR/2001/REC-SVG-20010904/DTD/svg10.dtd">
<svg version="1.0" xmlns="http://www.w3.org/2000/svg"
 width="1200.000000pt" height="507.000000pt" viewBox="0 0 1200.000000 507.000000"
 preserveAspectRatio="xMidYMid meet">

<g transform="translate(0.000000,507.000000) scale(0.100000,-0.100000)"
fill="#000000" stroke="none">
<path d="M2000 3486 c-197 -42 -374 -134 -517 -270 -330 -312 -423 -794 -233
-1202 52 -112 109 -195 204 -292 174 -180 394 -286 649 -312 194 -20 378 15
562 105 302 147 514 428 571 757 23 133 15 330 -20 455 -101 367 -382 645
-754 745 -99 26 -363 34 -462 14z m440 -106 c164 -42 293 -116 423 -239 265
-253 360 -625 250 -976 -96 -303 -335 -536 -650 -632 -79 -24 -104 -26 -253
-27 -142 -1 -176 2 -248 22 -168 46 -311 129 -433 251 -122 123 -202 257 -250
422 -30 106 -38 325 -14 440 76 376 365 667 745 750 116 26 310 21 430 -11z"/>
<path d="M1699 3056 c-124 -102 -221 -260 -260 -423 -30 -125 -24 -303 15
-418 51 -150 142 -282 254 -370 44 -35 65 -45 95 -45 l37 0 0 180 0 180 365 0
365 0 0 -180 0 -180 38 0 c30 0 48 9 92 47 163 140 255 309 282 520 28 215
-47 447 -195 610 -80 87 -143 133 -183 133 l-34 0 0 -180 0 -180 -365 0 -365
0 0 180 0 180 -38 0 c-31 0 -50 -10 -103 -54z m41 -603 l0 -517 -31 30 c-234
223 -265 638 -66 899 31 41 89 105 94 105 2 0 3 -233 3 -517z m1079 314 c53
-109 72 -190 73 -306 0 -179 -61 -344 -172 -463 l-59 -63 0 520 0 520 59 -63
c36 -39 74 -94 99 -145z m-254 -312 l0 -200 -360 0 -360 0 -3 190 c-1 104 0
195 3 202 3 11 77 13 362 11 l358 -3 0 -200z"/>
<path d="M7395 3183 c-191 -30 -325 -117 -389 -253 -29 -61 -31 -72 -31 -180
0 -105 2 -120 28 -171 57 -117 180 -200 353 -240 182 -42 251 -67 278 -100 49
-58 25 -148 -48 -183 -117 -55 -294 -12 -413 100 l-54 51 -110 -105 -109 -104
26 -31 c43 -53 136 -126 199 -157 95 -47 204 -71 330 -71 252 -2 436 94 517
268 57 121 50 297 -17 403 -54 86 -150 139 -330 181 -198 48 -251 66 -279 100
-36 43 -35 98 2 140 75 84 267 63 387 -43 l36 -31 107 107 107 107 -58 54
c-65 59 -171 116 -262 139 -64 16 -220 27 -270 19z"/>
<path d="M6040 3165 c-277 -76 -449 -308 -475 -641 -13 -168 30 -372 106 -501
44 -74 140 -171 209 -210 169 -96 407 -108 583 -29 207 93 342 308 366 581 22
262 -50 497 -199 646 -63 64 -125 102 -219 137 -85 32 -284 41 -371 17z m286
-346 c164 -85 224 -382 118 -597 -57 -116 -156 -173 -277 -158 -163 19 -261
166 -261 391 0 199 71 333 203 382 56 21 158 12 217 -18z"/>
<path d="M8625 3164 c-230 -49 -397 -221 -466 -479 -31 -115 -31 -336 0 -450
63 -235 204 -397 409 -472 52 -20 93 -26 182 -30 134 -6 226 10 316 54 64 31
171 125 221 196 l33 45 -134 91 c-74 50 -138 91 -143 91 -4 -1 -23 -21 -40
-45 -18 -24 -54 -57 -80 -72 -42 -24 -58 -28 -128 -28 -64 0 -89 5 -125 23
-134 70 -198 209 -188 410 4 84 10 109 35 163 34 73 85 129 146 161 33 18 59
23 122 23 98 0 142 -21 208 -96 l45 -51 136 91 137 92 -33 46 c-53 73 -152
159 -223 193 -123 59 -283 75 -430 44z"/>
<path d="M4310 2454 l0 -695 403 3 c396 3 403 4 462 27 149 59 242 164 263
297 26 162 -47 308 -186 371 l-53 25 43 28 c115 74 163 190 138 330 -23 125
-86 210 -195 261 -91 42 -160 49 -532 49 l-343 0 0 -696z m681 369 c41 -41 50
-112 21 -159 -34 -53 -72 -64 -231 -64 l-141 0 0 131 0 130 160 -3 160 -3 31
-32z m15 -523 c92 -45 99 -173 11 -225 -28 -17 -55 -20 -199 -23 l-168 -4 0
136 0 136 157 0 c137 0 162 -3 199 -20z"/>
<path d="M9460 2455 l0 -695 180 0 180 0 0 275 0 275 215 0 215 0 0 -275 0
-275 180 0 180 0 0 695 0 695 -180 0 -180 0 0 -255 0 -255 -215 0 -215 0 0
255 0 255 -180 0 -180 0 0 -695z"/>
</g>
</svg>
