<?xml version="1.0" standalone="no"?>
<!DOCTYPE svg PUBLIC "-//W3C//DTD SVG 20010904//EN"
 "http://www.w3.org/TR/2001/REC-SVG-20010904/DTD/svg10.dtd">
<svg version="1.0" xmlns="http://www.w3.org/2000/svg"
 width="267.000000pt" height="80.000000pt" viewBox="0 0 267.000000 80.000000"
 preserveAspectRatio="xMidYMid meet">

<g transform="translate(0.000000,80.000000) scale(0.100000,-0.100000)"
fill="#000000" stroke="none">
<path d="M769 629 c-102 -17 -151 -102 -110 -193 28 -63 86 -91 177 -83 34 2
67 8 73 11 6 4 11 34 11 67 l0 59 -45 0 -45 0 0 -40 c0 -35 -3 -40 -23 -40
-44 0 -74 58 -56 109 14 39 48 55 103 49 l46 -6 0 33 c0 32 -1 33 -49 37 -27
1 -64 0 -82 -3z"/>
<path d="M90 600 l0 -30 78 0 c47 0 83 -5 90 -12 16 -16 16 -110 0 -126 -7 -7
-25 -12 -40 -12 -27 0 -28 2 -28 50 l0 50 -50 0 -50 0 0 -80 0 -80 73 -1 c135
-2 169 7 192 52 19 36 19 132 0 168 -20 39 -61 51 -171 51 l-94 0 0 -30z"/>
<path d="M400 492 l0 -138 48 2 47 2 3 52 3 52 60 -4 59 -4 0 33 0 33 -60 0
c-57 0 -60 1 -60 25 0 24 3 25 60 25 l60 0 0 30 0 30 -110 0 -110 0 0 -138z"/>
<path d="M1060 580 c0 -47 2 -50 25 -50 15 0 31 9 41 25 15 23 15 27 0 50 -10
16 -26 25 -41 25 -23 0 -25 -3 -25 -50z m60 20 c14 -26 -3 -60 -30 -60 -17 0
-20 7 -20 40 0 33 3 40 20 40 10 0 24 -9 30 -20z"/>
<path d="M1318 615 c-7 -13 2 -85 11 -85 4 0 5 17 3 38 -5 50 -7 58 -14 47z"/>
<path d="M1165 594 c-8 -9 -15 -19 -15 -24 0 -17 13 -40 22 -40 6 0 5 6 -2 15
-11 13 -8 15 14 15 19 0 26 5 26 19 0 25 -26 34 -45 15z m35 -15 c0 -5 -7 -9
-15 -9 -15 0 -20 12 -9 23 8 8 24 -1 24 -14z"/>
<path d="M1363 594 c-4 -10 1 -22 11 -30 10 -7 15 -17 11 -23 -3 -6 -1 -11 4
-11 16 0 13 21 -6 42 -15 17 -15 20 -3 28 11 7 11 10 2 10 -7 0 -15 -7 -19
-16z"/>
<path d="M1432 598 c-14 -14 -16 -54 -3 -62 4 -3 6 6 3 21 -3 18 1 30 13 40
11 7 14 13 9 13 -6 0 -15 -5 -22 -12z"/>
<path d="M1518 598 c5 -7 12 -26 15 -43 4 -28 4 -28 6 6 1 26 -4 39 -15 43
-13 5 -14 3 -6 -6z"/>
<path d="M1576 595 c-9 -9 -16 -20 -16 -25 0 -17 13 -40 22 -40 6 0 5 6 -2 15
-11 13 -8 15 14 15 29 0 35 20 12 39 -11 9 -18 8 -30 -4z m34 -16 c0 -5 -10
-9 -21 -9 -18 0 -19 2 -9 15 12 15 30 12 30 -6z"/>
<path d="M1230 572 c0 -17 4 -34 10 -37 6 -4 7 6 3 27 -8 44 -13 48 -13 10z"/>
<path d="M1279 570 c-7 -35 -4 -48 7 -38 3 4 4 21 2 40 l-3 33 -6 -35z"/>
<path d="M1491 584 c0 -11 3 -14 6 -6 3 7 2 16 -1 19 -3 4 -6 -2 -5 -13z"/>
<path d="M1067 453 c-4 -3 -6 -27 -6 -52 1 -25 4 -36 6 -24 2 12 12 24 21 26
15 4 15 5 0 6 -11 1 -18 9 -18 20 0 11 8 22 18 24 14 4 14 5 1 6 -9 0 -19 -2
-22 -6z"/>
<path d="M1383 410 c0 -30 2 -44 4 -30 7 38 22 48 39 26 15 -21 19 -10 5 13
-5 8 -16 11 -24 8 -11 -4 -17 1 -20 16 -2 12 -4 -3 -4 -33z"/>
<path d="M2353 409 c0 -48 0 -50 7 -20 5 19 5 43 1 54 -5 13 -8 1 -8 -34z"/>
<path d="M2562 406 c2 -33 8 -51 18 -54 13 -5 13 -3 1 11 -7 9 -11 28 -9 41 3
14 1 31 -4 38 -5 8 -7 -6 -6 -36z"/>
<path d="M1130 415 c-26 -31 13 -82 44 -56 21 18 20 45 -1 62 -16 13 -17 12
-5 -3 16 -20 7 -58 -14 -58 -21 0 -29 29 -15 51 13 23 8 25 -9 4z"/>
<path d="M1254 418 c-4 -6 0 -16 9 -23 20 -14 22 -31 5 -38 -8 -4 -9 -6 -2 -6
6 -1 17 5 24 13 9 12 7 17 -9 28 -26 16 -27 25 -3 31 15 4 15 5 0 6 -9 0 -20
-4 -24 -11z"/>
<path d="M1322 418 c-24 -24 -6 -69 28 -67 9 0 6 4 -7 9 -14 6 -23 18 -23 30
0 12 9 24 23 30 13 5 16 9 7 9 -9 1 -21 -4 -28 -11z"/>
<path d="M1464 396 c1 -25 6 -41 16 -44 12 -4 13 -2 3 9 -6 8 -13 28 -16 44
-4 23 -4 20 -3 -9z"/>
<path d="M1553 423 c-7 -2 -12 -19 -12 -36 l1 -32 7 30 c3 17 13 30 21 30 8 0
18 -13 22 -30 6 -29 6 -29 5 5 -2 34 -16 45 -44 33z"/>
<path d="M1624 405 c-8 -32 14 -59 40 -49 27 10 18 68 -11 72 -17 3 -24 -3
-29 -23z m44 -12 c-3 -30 -25 -42 -34 -19 -9 22 2 46 21 46 12 0 15 -8 13 -27z"/>
<path d="M1704 418 c-4 -6 0 -16 9 -23 20 -14 22 -31 5 -38 -8 -4 -9 -6 -2 -6
6 -1 17 5 24 13 9 12 7 17 -9 28 -26 16 -27 25 -3 31 15 4 15 5 0 6 -9 0 -20
-4 -24 -11z"/>
<path d="M1767 424 c-12 -12 -8 -51 7 -63 24 -20 47 -2 44 33 -2 22 -9 32 -23
34 -12 2 -24 0 -28 -4z m41 -31 c-3 -30 -25 -42 -34 -19 -9 22 2 46 21 46 12
0 15 -8 13 -27z"/>
<path d="M1852 418 c-24 -24 -7 -69 28 -67 9 0 6 4 -7 9 -31 13 -29 30 3 30
19 0 25 5 22 17 -4 22 -29 28 -46 11z m33 -8 c3 -5 -3 -10 -15 -10 -12 0 -18
5 -15 10 3 6 10 10 15 10 5 0 12 -4 15 -10z"/>
<path d="M1948 423 c6 -3 13 -19 13 -36 l1 -32 7 30 c3 17 13 30 21 30 8 0 18
-13 22 -30 6 -29 6 -29 5 5 -2 34 -3 35 -42 36 -22 1 -34 -1 -27 -3z"/>
<path d="M2047 423 c-4 -3 -7 -19 -7 -34 0 -25 16 -40 43 -38 7 0 2 4 -10 9
-31 12 -29 30 2 30 27 0 32 9 13 28 -13 13 -31 16 -41 5z m38 -13 c3 -5 -3
-10 -15 -10 -12 0 -18 5 -15 10 3 6 10 10 15 10 5 0 12 -4 15 -10z"/>
<path d="M2170 426 c0 -2 7 -6 15 -10 8 -3 15 -1 15 4 0 6 -7 10 -15 10 -8 0
-15 -2 -15 -4z"/>
<path d="M2230 416 c0 -7 7 -19 15 -26 20 -16 19 -27 -2 -33 -17 -4 -17 -5 0
-6 26 -2 33 27 11 44 -17 13 -17 16 -4 25 13 8 13 10 -2 10 -10 0 -18 -6 -18
-14z"/>
<path d="M2290 415 c-17 -21 2 -65 27 -64 16 1 16 2 1 6 -33 8 -33 58 0 66 15
4 15 5 1 6 -9 0 -22 -6 -29 -14z"/>
<path d="M2387 423 c6 -4 13 -22 16 -38 4 -27 5 -27 3 4 0 21 -7 36 -16 38
-10 3 -11 2 -3 -4z"/>
<path d="M2469 416 c10 -12 8 -15 -11 -18 -25 -3 -33 -39 -10 -44 7 -1 8 0 2
3 -17 8 -11 23 15 33 16 6 23 14 19 25 -3 8 -11 15 -16 15 -6 0 -6 -6 1 -14z"/>
<path d="M2510 419 c0 -5 5 -7 10 -4 6 3 10 8 10 11 0 2 -4 4 -10 4 -5 0 -10
-5 -10 -11z"/>
<path d="M1212 390 c0 -19 2 -27 5 -17 2 9 2 25 0 35 -3 9 -5 1 -5 -18z"/>
<path d="M1508 390 c-3 -16 -1 -30 4 -30 4 0 8 14 8 30 0 17 -2 30 -4 30 -2 0
-6 -13 -8 -30z"/>
<path d="M1922 390 c0 -19 2 -27 5 -17 2 9 2 25 0 35 -3 9 -5 1 -5 -18z"/>
<path d="M2152 390 c0 -19 2 -27 5 -17 2 9 2 25 0 35 -3 9 -5 1 -5 -18z"/>
<path d="M2512 380 c0 -14 2 -19 5 -12 2 6 2 18 0 25 -3 6 -5 1 -5 -13z"/>
<path d="M1650 333 c-14 -7 -18 -13 -10 -13 17 0 47 17 40 23 -3 2 -16 -2 -30
-10z"/>
<path d="M1790 333 c-14 -7 -18 -13 -10 -13 17 0 47 17 40 23 -3 2 -16 -2 -30
-10z"/>
</g>
</svg>
