<?xml version="1.0" standalone="no"?>
<!DOCTYPE svg PUBLIC "-//W3C//DTD SVG 20010904//EN"
 "http://www.w3.org/TR/2001/REC-SVG-20010904/DTD/svg10.dtd">
<svg version="1.0" xmlns="http://www.w3.org/2000/svg"
 width="1216.000000pt" height="396.000000pt" viewBox="0 0 1216.000000 396.000000"
 preserveAspectRatio="xMidYMid meet">

<g transform="translate(0.000000,396.000000) scale(0.100000,-0.100000)"
fill="#000000" stroke="none">
<path d="M6460 1985 l0 -1975 1985 0 1985 0 0 1975 0 1975 -1985 0 -1985 0 0
-1975z m3680 835 c0 -711 -2 -850 -13 -843 -8 4 -48 33 -90 63 -55 39 -75 59
-70 70 76 175 74 330 -5 483 -66 128 -190 229 -347 283 -106 36 -267 44 -379
19 -110 -24 -225 -85 -306 -161 l-67 -64 -339 109 -339 109 -2 79 c-10 318
-284 563 -627 563 -116 0 -209 -20 -299 -64 -201 -98 -322 -271 -334 -476 -9
-158 40 -290 154 -410 95 -101 221 -166 364 -189 34 -6 64 -12 66 -15 5 -4
113 -728 113 -753 0 -7 -6 -13 -14 -13 -35 0 -182 -86 -242 -142 l-64 -61
-273 95 -272 95 -3 1037 -2 1036 1695 0 1695 0 0 -850z m-602 -172 c77 -29
149 -92 186 -162 25 -49 30 -70 31 -130 0 -127 -69 -230 -195 -290 -60 -29
-73 -31 -170 -31 -88 0 -113 4 -154 23 -227 104 -278 355 -106 516 107 100
263 128 408 74z m-1115 -143 l337 -108 0 -57 c0 -75 24 -162 64 -235 l33 -60
-315 -254 -314 -253 -77 36 c-74 34 -176 66 -213 66 -10 0 -21 6 -23 13 -2 6
-27 170 -55 362 -28 193 -53 364 -56 380 -5 28 -2 32 48 56 67 33 170 111 193
145 9 14 22 24 28 22 7 -3 164 -53 350 -113z m1527 -764 l185 -137 0 -649 0
-650 -372 -3 c-295 -2 -373 0 -373 10 -1 49 124 1475 129 1481 4 4 33 14 64
22 32 8 79 26 105 39 26 14 54 25 62 25 8 0 98 -62 200 -138z m-788 87 l60
-21 -6 -51 c-3 -28 -31 -348 -61 -711 -30 -363 -58 -679 -61 -702 l-5 -43
-194 0 c-162 0 -196 3 -209 16 -41 41 -351 387 -354 395 -2 5 13 28 33 51 45
53 91 147 106 219 16 75 6 212 -20 278 -12 29 -20 57 -19 62 5 15 643 527 657
528 8 1 41 -9 73 -21z m-1177 -452 c73 -33 147 -105 176 -169 34 -77 32 -175
-4 -249 -69 -140 -232 -219 -388 -189 -358 71 -380 526 -31 627 69 20 179 11
247 -20z m-999 -171 l201 -69 6 -81 c3 -45 14 -106 27 -140 12 -33 22 -67 23
-75 2 -11 -401 -300 -475 -341 -17 -9 -18 12 -18 386 0 372 1 396 18 393 9 -2
108 -34 218 -73z m545 -615 c107 -49 180 -64 314 -63 83 0 135 5 170 17 l50
16 35 -38 c19 -21 71 -78 114 -126 43 -47 77 -89 74 -91 -3 -3 -292 -4 -644
-3 l-639 3 229 158 c127 86 231 157 232 157 1 0 30 -13 65 -30z"/>
<path d="M2410 3125 l0 -255 30 0 30 0 0 116 0 116 71 -4 c69 -4 73 -5 106
-43 19 -22 55 -73 80 -112 43 -70 46 -73 84 -73 21 0 39 2 39 5 0 15 -116 178
-141 199 -16 14 -29 27 -29 29 0 2 18 9 40 16 83 25 118 127 67 202 -32 48
-70 58 -234 58 l-143 1 0 -255z m273 194 c48 -13 77 -64 59 -103 -21 -46 -55
-59 -168 -64 l-104 -5 0 92 0 91 88 0 c48 0 104 -5 125 -11z"/>
<path d="M5080 3125 l0 -255 30 0 30 0 0 125 c0 91 4 134 15 154 31 62 133 61
154 -1 6 -17 11 -87 11 -154 l0 -124 30 0 30 0 -1 133 c0 147 -10 190 -51 220
-40 30 -117 29 -157 -1 l-31 -23 0 91 0 90 -30 0 -30 0 0 -255z"/>
<path d="M3007 3236 c-21 -8 -47 -22 -57 -31 -55 -50 -67 -208 -22 -273 33
-46 77 -66 142 -66 66 1 114 23 140 67 26 42 25 44 -9 49 -23 3 -32 -1 -40
-19 -6 -13 -26 -31 -45 -40 -66 -31 -137 9 -153 87 l-5 30 141 0 142 0 -6 38
c-16 95 -39 128 -107 157 -45 18 -71 18 -121 1z m136 -76 c15 -17 27 -39 27
-50 0 -19 -7 -20 -105 -20 -58 0 -105 2 -105 4 0 1 5 18 11 35 26 74 118 90
172 31z"/>
<path d="M3392 3241 c-70 -18 -107 -83 -78 -139 16 -30 55 -50 164 -83 50 -14
68 -39 52 -69 -14 -26 -42 -40 -80 -40 -40 0 -67 15 -88 48 -14 22 -22 27 -45
22 l-27 -5 17 -34 c29 -55 63 -74 135 -75 79 0 124 22 145 71 16 39 11 78 -14
105 -9 10 -55 29 -102 44 -47 14 -92 31 -98 36 -20 16 -15 45 9 62 44 31 138
10 138 -30 0 -19 49 -19 56 0 21 54 -95 109 -184 87z"/>
<path d="M3767 3236 c-50 -18 -62 -30 -86 -80 -29 -60 -28 -157 2 -210 31 -55
78 -81 147 -80 66 1 114 24 140 67 26 42 25 44 -10 49 -23 3 -31 0 -36 -14 -7
-23 -61 -58 -87 -58 -36 0 -85 32 -101 65 -31 65 -31 65 124 65 l140 0 -6 43
c-10 65 -29 102 -66 131 -43 32 -109 41 -161 22z m136 -76 c15 -17 27 -39 27
-50 0 -19 -7 -20 -105 -20 -58 0 -105 2 -105 4 0 1 5 18 11 35 26 74 118 90
172 31z"/>
<path d="M4175 3241 c-48 -12 -74 -29 -90 -62 -18 -35 -13 -49 19 -49 15 0 27
9 34 25 19 41 84 57 136 34 27 -13 52 -67 38 -81 -5 -5 -46 -16 -91 -23 -130
-23 -161 -47 -161 -122 0 -87 108 -128 204 -79 51 26 66 26 66 0 0 -9 10 -14
28 -14 l28 0 -3 88 c-7 180 -14 233 -33 252 -34 34 -109 47 -175 31z m140
-218 c-4 -16 -8 -38 -11 -51 -11 -53 -124 -82 -164 -42 -44 44 -13 86 77 105
95 21 104 20 98 -12z"/>
<path d="M4590 3243 c-8 -3 -25 -17 -37 -31 l-23 -27 0 28 c0 22 -4 27 -25 27
l-25 0 0 -185 0 -185 30 0 30 0 0 125 c0 169 12 192 92 186 19 -2 28 4 33 19
4 12 3 26 -2 30 -12 12 -55 20 -73 13z"/>
<path d="M4807 3236 c-50 -18 -67 -34 -88 -81 -27 -58 -25 -149 4 -205 44 -89
164 -115 239 -52 26 22 58 76 58 97 0 3 -13 5 -28 5 -22 0 -32 -7 -44 -33 -31
-65 -118 -73 -162 -14 -28 38 -34 139 -9 187 24 47 88 71 129 50 15 -8 31 -25
37 -37 7 -16 19 -23 39 -23 33 0 33 1 12 46 -28 58 -115 86 -187 60z"/>
<path d="M2870 2610 l0 -30 85 0 85 0 0 -225 0 -225 35 0 35 0 0 225 0 225 85
0 85 0 0 30 0 30 -205 0 -205 0 0 -30z"/>
<path d="M3960 2605 c0 -32 2 -35 30 -35 28 0 30 3 30 35 0 32 -2 35 -30 35
-28 0 -30 -3 -30 -35z"/>
<path d="M4520 2605 c0 -32 2 -35 30 -35 28 0 30 3 30 35 0 32 -2 35 -30 35
-28 0 -30 -3 -30 -35z"/>
<path d="M3429 2498 c-13 -5 -32 -19 -41 -31 l-18 -22 0 28 c0 22 -4 27 -25
27 l-25 0 0 -185 0 -185 30 0 30 0 0 125 c0 73 5 135 12 150 13 28 45 40 82
31 20 -5 25 -1 30 20 4 13 4 29 1 33 -8 14 -50 18 -76 9z"/>
<path d="M3663 2499 c-58 -11 -80 -25 -98 -59 -21 -41 -19 -50 14 -50 21 0 32
6 36 21 9 29 67 51 111 43 44 -8 64 -28 64 -64 0 -33 -4 -34 -104 -50 -77 -12
-121 -31 -136 -59 -15 -29 -12 -88 6 -116 33 -50 140 -57 210 -15 l32 21 7
-21 c5 -14 15 -20 37 -20 22 0 29 4 25 14 -3 8 -9 80 -13 160 -7 146 -7 147
-36 171 -16 14 -42 25 -58 25 -16 0 -34 2 -42 4 -7 2 -32 0 -55 -5z m127 -228
c0 -60 -33 -92 -98 -99 -59 -5 -92 14 -92 53 0 33 30 53 101 69 92 20 89 21
89 -23z"/>
<path d="M4252 2500 c-18 -4 -44 -18 -58 -31 l-24 -22 0 26 c0 22 -5 27 -25
27 l-25 0 0 -185 0 -185 30 0 30 0 0 126 c0 162 15 193 96 194 70 0 78 -18 82
-181 l4 -139 30 0 31 0 -5 149 c-5 156 -14 188 -55 209 -29 15 -76 20 -111 12z"/>
<path d="M4810 2498 c-19 -5 -45 -19 -57 -31 l-23 -20 0 26 c0 22 -5 27 -25
27 l-25 0 0 -185 0 -185 30 0 30 0 0 126 c0 162 15 193 96 194 70 0 78 -18 82
-181 l4 -139 30 0 30 0 -4 149 c-3 118 -7 154 -21 174 -29 44 -86 62 -147 45z"/>
<path d="M5173 2498 c-148 -30 -161 -311 -17 -358 45 -15 109 -7 135 16 26 23
31 15 23 -37 -10 -63 -41 -89 -103 -89 -44 0 -53 4 -73 30 -27 38 -68 42 -68
7 0 -24 28 -56 67 -76 34 -17 124 -13 163 8 68 36 75 60 79 294 l3 207 -31 0
c-25 0 -31 -4 -31 -21 0 -20 0 -20 -27 -1 -36 25 -68 30 -120 20z m103 -65
c33 -21 47 -66 42 -133 -3 -49 -9 -65 -33 -90 -59 -61 -147 -28 -164 62 -25
138 58 224 155 161z"/>
<path d="M3960 2315 l0 -185 30 0 30 0 0 185 0 185 -30 0 -30 0 0 -185z"/>
<path d="M4520 2315 l0 -185 30 0 30 0 0 185 0 185 -30 0 -30 0 0 -185z"/>
<path d="M3680 1899 c-62 -8 -100 -25 -138 -62 -65 -63 -91 -199 -56 -302 50
-144 236 -199 392 -115 l62 33 0 100 0 100 -37 -7 c-21 -3 -68 -6 -105 -6 -66
0 -68 -1 -68 -25 0 -24 2 -25 76 -25 l75 0 -3 -52 c-3 -52 -4 -54 -48 -75 -61
-31 -150 -31 -205 0 -57 31 -86 94 -86 183 0 133 73 210 194 202 65 -5 104
-28 127 -76 12 -26 19 -30 40 -25 14 3 27 8 30 10 11 10 -48 99 -77 116 -40
23 -115 34 -173 26z"/>
<path d="M4040 1575 l0 -185 30 0 30 0 0 129 c0 116 2 131 22 156 18 23 27 26
59 22 34 -4 38 -2 44 21 12 49 -61 59 -107 15 l-28 -27 0 27 c0 22 -5 27 -25
27 l-25 0 0 -185z"/>
<path d="M4342 1744 c-119 -61 -118 -285 1 -343 59 -28 120 -27 172 4 57 33
79 81 80 170 0 78 -19 122 -68 158 -37 29 -139 34 -185 11z m156 -63 c42 -43
50 -125 17 -203 -19 -46 -110 -64 -151 -30 -34 29 -46 61 -46 122 0 93 36 139
109 140 33 0 48 -6 71 -29z"/>
<path d="M4680 1610 c0 -166 6 -191 55 -215 57 -26 123 -17 165 25 l20 20 0
-25 c0 -20 5 -25 25 -25 l25 0 0 186 0 185 -27 -3 -28 -3 -5 -138 c-5 -137 -5
-139 -33 -163 -32 -27 -83 -32 -112 -10 -22 16 -33 85 -34 219 -1 97 -1 97
-26 97 l-25 0 0 -150z"/>
<path d="M5080 1500 l0 -260 30 0 30 0 0 92 c0 90 0 91 20 73 27 -25 99 -31
137 -11 75 38 114 137 93 232 -6 27 -18 59 -26 72 -42 64 -147 83 -203 36
l-31 -26 0 26 c0 21 -5 26 -25 26 l-25 0 0 -260z m223 179 c27 -29 33 -56 28
-129 -4 -78 -41 -120 -105 -120 -111 0 -130 236 -22 280 32 14 68 2 99 -31z"/>
<path d="M3040 1120 c0 -27 3 -30 30 -30 27 0 30 3 30 30 0 27 -3 30 -30 30
-27 0 -30 -3 -30 -30z"/>
<path d="M3475 1006 c-16 -7 -38 -22 -47 -32 -50 -57 -64 -176 -28 -248 28
-57 63 -79 130 -84 83 -6 134 25 158 96 9 26 8 32 -3 32 -7 0 -20 3 -29 6 -10
4 -17 -2 -21 -19 -10 -39 -48 -69 -88 -69 -77 0 -115 63 -104 172 7 68 46 110
103 110 35 0 84 -35 84 -60 0 -6 12 -10 28 -8 22 2 27 7 24 27 -8 71 -123 114
-207 77z"/>
<path d="M4003 1005 c-39 -17 -67 -66 -58 -104 9 -43 41 -66 132 -96 89 -29
107 -45 90 -82 -24 -53 -138 -46 -165 10 -13 26 -35 34 -59 19 -19 -12 11 -69
49 -92 48 -29 143 -28 189 3 63 42 74 110 26 155 -12 11 -56 30 -97 42 -75 22
-110 43 -110 65 0 24 37 45 79 45 34 0 49 -6 69 -28 18 -17 35 -26 50 -24 26
4 28 19 6 51 -34 47 -134 66 -201 36z"/>
<path d="M4395 1006 c-66 -29 -95 -84 -95 -178 0 -119 62 -188 169 -188 63 0
110 22 140 65 42 62 -12 78 -63 19 -25 -29 -38 -36 -67 -36 -47 0 -75 16 -99
55 -39 64 -36 66 118 69 l137 3 -3 45 c-10 122 -128 195 -237 146z m131 -54
c25 -19 44 -53 44 -76 0 -14 -16 -16 -105 -16 -58 0 -105 2 -105 5 0 20 32 75
51 89 30 21 88 20 115 -2z"/>
<path d="M4823 1004 c-18 -9 -33 -20 -33 -25 0 -5 -4 -9 -10 -9 -5 0 -10 9
-10 20 0 15 -7 20 -25 20 l-25 0 0 -186 0 -185 28 3 27 3 5 138 c5 137 5 139
33 163 34 29 85 32 118 5 23 -18 24 -26 27 -166 l4 -146 27 3 26 3 0 140 c0
77 -4 153 -8 168 -16 58 -114 85 -184 51z"/>
<path d="M5163 1005 c-39 -17 -67 -66 -58 -104 9 -43 41 -66 133 -96 86 -28
105 -45 91 -82 -19 -52 -136 -47 -164 7 -16 32 -52 41 -61 16 -9 -22 23 -74
56 -91 16 -8 54 -15 85 -15 86 0 141 37 151 102 9 55 -27 90 -123 118 -108 31
-135 57 -95 93 11 10 36 17 61 17 34 0 49 -6 69 -28 18 -17 35 -26 50 -24 26
4 28 19 6 51 -34 47 -134 66 -201 36z"/>
<path d="M3040 824 l0 -185 28 3 27 3 3 183 2 182 -30 0 -30 0 0 -186z"/>
<path d="M3220 675 c0 -32 2 -35 30 -35 28 0 30 3 30 35 0 32 -2 35 -30 35
-28 0 -30 -3 -30 -35z"/>
<path d="M3772 678 c3 -29 7 -33 36 -36 31 -3 32 -2 32 32 0 35 -1 36 -36 36
-34 0 -35 -1 -32 -32z"/>
</g>
</svg>
