<?xml version="1.0" standalone="no"?>
<!DOCTYPE svg PUBLIC "-//W3C//DTD SVG 20010904//EN"
 "http://www.w3.org/TR/2001/REC-SVG-20010904/DTD/svg10.dtd">
<svg version="1.0" xmlns="http://www.w3.org/2000/svg"
 width="300.000000pt" height="156.000000pt" viewBox="0 0 300.000000 156.000000"
 preserveAspectRatio="xMidYMid meet">

<g transform="translate(0.000000,156.000000) scale(0.100000,-0.100000)"
fill="#000000" stroke="none">
<path d="M1590 1438 c-119 -8 -303 -34 -418 -59 -51 -10 -53 -12 -47 -37 4
-15 8 -29 10 -30 2 -2 57 5 122 17 176 31 305 41 509 41 426 0 762 -95 944
-266 97 -92 135 -169 135 -274 -1 -60 -6 -86 -28 -134 -40 -88 -108 -177 -192
-253 -68 -61 -75 -71 -75 -105 0 -21 4 -38 9 -38 14 0 100 71 164 136 186 188
243 394 158 569 -47 97 -167 215 -276 272 -180 94 -370 142 -645 163 -151 11
-190 11 -370 -2z"/>
<path d="M902 1347 c-47 -50 -10 -137 57 -137 34 0 81 48 81 84 0 64 -94 100
-138 53z"/>
<path d="M670 1226 c-122 -50 -242 -109 -338 -167 -73 -45 -191 -131 -192
-140 -1 -19 75 12 157 64 107 67 273 147 408 197 50 18 91 34 93 36 5 3 -10
54 -17 54 -3 -1 -53 -20 -111 -44z"/>
<path d="M1455 1181 c-104 -26 -164 -102 -174 -221 l-6 -65 -42 -3 -43 -3 0
-50 0 -49 45 0 45 0 0 -325 0 -326 58 3 57 3 3 322 2 322 113 3 112 3 3 48 3
47 -115 0 -116 0 0 50 c0 63 21 105 62 126 26 13 50 16 120 11 l88 -6 0 53 0
53 -37 7 c-49 8 -139 6 -178 -3z"/>
<path d="M1915 886 c-77 -32 -154 -112 -186 -193 -20 -49 -23 -77 -24 -178 0
-111 2 -125 28 -181 35 -76 94 -135 172 -171 56 -26 68 -28 185 -27 106 0 135
4 195 25 l70 25 3 67 c2 37 1 67 -1 67 -2 0 -28 -13 -58 -30 -155 -85 -334
-70 -414 34 -31 40 -55 108 -55 152 l0 34 271 0 271 0 -4 93 c-5 105 -28 171
-81 225 -56 59 -100 76 -212 79 -88 3 -107 1 -160 -21z m222 -87 c60 -22 97
-74 108 -152 l7 -47 -211 0 c-205 0 -211 1 -211 20 0 60 58 140 125 171 45 21
138 25 182 8z"/>
<path d="M890 520 c0 -203 3 -370 8 -371 4 0 23 -3 42 -5 19 -2 45 -2 58 1
l22 5 0 370 0 370 -65 0 -65 0 0 -370z"/>
</g>
</svg>
