<?xml version="1.0" encoding="utf-8"?>
<!-- Generator: Adobe Illustrator 22.1.0, SVG Export Plug-In . SVG Version: 6.00 Build 0)  -->
<svg version="1.0" xmlns="http://www.w3.org/2000/svg" xmlns:xlink="http://www.w3.org/1999/xlink" x="0px" y="0px" width="810px"
	 height="256px" viewBox="0 0 810 256" style="enable-background:new 0 0 810 256;" xml:space="preserve">
<style type="text/css">
	.st0{display:none;}
	.st1{fill-rule:evenodd;clip-rule:evenodd;fill:#00509B;}
	.st2{fill-rule:evenodd;clip-rule:evenodd;fill:#FFFFFF;}
</style>
<g id="Hintergrund" class="st0">
</g>
<g id="Hilfslinien_anzeigen" class="st0">
</g>
<g id="Vordergrund">
	<g>
		<rect x="262.1" y="16.8" class="st1" width="534.9" height="226.2"/>
		<rect x="12.7" y="16.8" class="st1" width="226.2" height="226.2"/>
		<g>
			<path class="st2" d="M303.4,84.9h21.6v-4.7h-15.7V44h-5.9V84.9z M350.8,80.4c-1.2,0.4-2.9,1-5.3,1c-7.7,0-10.4-7.4-10.4-12.7
				h16.4v-1.4c0-6.6-3.3-11.3-10.2-11.3c-3.6,0-11.5,1.3-11.5,13.4c0,11.1,5.5,16.1,14,16.1c3.1,0,4.7-0.4,7.1-0.9V80.4z
				 M335.3,65.1c0-1.2,1.2-5,5.6-5c4.1,0,5.2,3.2,5.2,5H335.3z M359.8,84.9h5.3V56.7h-5.3V84.9z M359.3,50h6.4v-6h-6.4V50z
				 M379.3,44H374v29.2c0,3.6,0.4,12.3,11,12.3c8.2,0,11.4-5.8,11.4-14.5c0-7.4-1.8-15.1-9.6-15.1c-4.5,0-6.7,3-7.4,4.5L379.3,44z
				 M379.3,70.7c0-3.9,1.6-10.6,6-10.6c4.4,0,5.2,6.6,5.2,10.7c0,5.2-1.1,10.5-5.8,10.5C379.5,81.4,379.3,75.1,379.3,70.7z
				 M404.3,84.9h5.3v-12c0-5.6,3.1-11.6,7.5-11.6c3.9,0,3.9,2.9,3.9,8.1v15.4h5.3V65.3c0-3.5-1.1-9.3-7.6-9.3c-5.8,0-8,4.3-9,6.7
				l-0.1-6h-5.3V84.9z M436.2,84.9h5.3V56.7h-5.3V84.9z M435.7,50h6.4v-6h-6.4V50z M448.9,84.9h20.7v-4.2h-14.2l13.7-20v-4h-19.3
				v4.1h12.8l-13.7,19.9V84.9z"/>
			<path class="st2" d="M330.7,109.7h-5.9v27.7c0,3,0,9.1-8.1,9.1c-7.8,0-7.8-6.1-7.8-9.1v-27.7h-5.9v28.8c0,8.8,5.9,12.7,13.8,12.7
				c8,0,13.9-4,13.9-12.7V109.7z M338.7,150.6h5.3v-12c0-5.6,3.1-11.6,7.5-11.6c3.9,0,3.9,2.9,3.9,8.1v15.4h5.3V131
				c0-3.5-1.1-9.3-7.6-9.3c-5.8,0-8,4.3-9,6.7l-0.1-6h-5.3V150.6z M369.4,150.6h5.3v-28.2h-5.3V150.6z M368.9,115.7h6.4v-6h-6.4
				V115.7z M391.9,150.6h5.5l9.8-28.2h-5.9l-6.6,20.5l-7.5-20.5h-5.9L391.9,150.6z M431.3,146.1c-1.2,0.4-2.9,1-5.3,1
				c-7.7,0-10.4-7.4-10.4-12.7H432v-1.4c0-6.6-3.3-11.3-10.2-11.3c-3.6,0-11.5,1.3-11.5,13.4c0,11.1,5.5,16.1,14,16.1
				c3.1,0,4.7-0.4,7.1-0.9V146.1z M415.8,130.9c0-1.2,1.2-5,5.6-5c4.1,0,5.2,3.2,5.2,5H415.8z M439.8,150.6h5.3v-12
				c0-8.7,4-11.1,8.8-11.1v-5.8c-5.6,0-7.9,4.1-8.7,6.3l-0.1-5.7h-5.3V150.6z M467.9,133.1c-1.8-1.1-4.1-2.2-4.1-4.1
				c0-1.8,2.3-3,4.6-3c3.1,0,5.7,1.3,6.5,1.7v-4.8c-1.4-0.2-3.6-1-6.4-1c-5.9,0-10,2.8-10,7.9c0,4.2,3.1,6,5.6,7.6l2.7,1.7
				c1.9,1.2,4.5,2.4,4.5,4.6c0,2.9-3.2,3.6-5.8,3.6c-3,0-6.6-1.4-7.1-1.7v4.7c1.2,0.4,3.7,1.1,7.6,1.1c6.3,0,10.6-2.6,10.6-8.5
				c0-4.7-3.6-6.5-6.5-8.4L467.9,133.1z M483.8,150.6h5.3v-28.2h-5.3V150.6z M483.3,115.7h6.4v-6h-6.4V115.7z M514.2,146.7
				c-0.8,0.2-1.9,0.4-2.8,0.4c-4.2,0-4.5-3-4.5-5.5v-15.1h7.8v-4.1h-7.8v-10l-5.3,3.3v6.6h-5v4.1h5v17.8c0,3.9,1.7,6.9,8.5,6.9
				c1.4,0,2.8-0.1,4.2-0.4V146.7z M520.8,116.7h7.3v-6.5h-7.3V116.7z M533,116.7h7.3v-6.5H533V116.7z M534.8,150.6h5.3v-19.4
				c0-2.5,0-9.5-9.2-9.5c-7.9,0-10.6,4-10.6,8.5h5.6c0-2.3,1.3-4.3,4.5-4.3c2,0,3.9,0.9,4.3,3.6v4.9c-7.2,0-15.4,1.8-15.4,9.2
				c0,4.4,2.7,7.6,8,7.6c4.3,0,6.6-2.6,7.3-4.2L534.8,150.6z M534.8,138v1.6c0,3.3-2.7,7.5-6.4,7.5c-1.6,0-3.1-1.4-3.1-3.6
				c0-3.6,4.2-5.5,8.4-5.5H534.8z M564.2,146.7c-0.8,0.2-1.9,0.4-2.8,0.4c-4.2,0-4.5-3-4.5-5.5v-15.1h7.8v-4.1h-7.8v-10l-5.3,3.3
				v6.6h-5v4.1h5v17.8c0,3.9,1.7,6.9,8.5,6.9c1.4,0,2.8-0.1,4.2-0.4V146.7z"/>
			<path class="st2" d="M354.6,216.3h5.3v-19.4c0-2.5,0-9.5-9.2-9.5c-7.9,0-10.6,4-10.6,8.5h5.6c0-2.3,1.3-4.3,4.5-4.3
				c2,0,3.9,0.9,4.3,3.6v4.9c-7.2,0-15.4,1.8-15.4,9.2c0,4.4,2.7,7.6,8,7.6c4.3,0,6.6-2.6,7.3-4.2L354.6,216.3z M354.6,203.7v1.6
				c0,3.3-2.7,7.5-6.4,7.5c-1.6,0-3.1-1.4-3.1-3.6c0-3.6,4.2-5.5,8.4-5.5H354.6z M369,216.3h5.3v-12c0-5.6,3.1-11.6,7.5-11.6
				c3.9,0,3.9,2.9,3.9,8.1v15.4h5.3v-19.6c0-3.5-1.1-9.3-7.6-9.3c-5.8,0-8,4.3-9,6.7l-0.1-6H369V216.3z M401,216.3h5.3v-12
				c0-5.6,3.1-11.6,7.5-11.6c3.9,0,3.9,2.9,3.9,8.1v15.4h5.3v-19.6c0-3.5-1.1-9.3-7.6-9.3c-5.8,0-8,4.3-9,6.7l-0.1-6H401V216.3z
				 M442.8,217c8.5,0,12.4-5.9,12.4-14.8c0-9-4-14.8-12.4-14.8c-8.5,0-12.5,5.8-12.5,14.8C430.3,211.1,434.3,217,442.8,217z
				 M436.2,202.2c0-4.6,0.7-10.6,6.6-10.6c5.8,0,6.5,6,6.5,10.6c0,4.5-0.8,10.6-6.5,10.6C437,212.8,436.2,206.7,436.2,202.2z
				 M468.5,216.3h5.5l9.8-28.2h-5.9l-6.6,20.5l-7.5-20.5h-5.9L468.5,216.3z M508.5,211.8c-1.2,0.4-2.9,1-5.3,1
				c-7.7,0-10.4-7.4-10.4-12.7h16.4v-1.4c0-6.6-3.3-11.3-10.2-11.3c-3.6,0-11.5,1.3-11.5,13.4c0,11.1,5.5,16.1,14,16.1
				c3.1,0,4.7-0.4,7.1-0.9V211.8z M493,196.6c0-1.2,1.2-5,5.6-5c4.1,0,5.2,3.2,5.2,5H493z M517,216.3h5.3v-12c0-8.7,4-11.1,8.8-11.1
				v-5.8c-5.6,0-7.9,4.1-8.7,6.3l-0.1-5.7H517V216.3z M303.4,216.3h5.9v-18.9h16.1v18.9h5.9v-40.9h-5.9v17.3h-16.1v-17.3h-5.9V216.3
				z"/>
		</g>
		<path class="st2" d="M81.5,120.2c0,0,0.1-3.5,3.3-3.1c1,0.1,1.3,1,1.7,2.1c1.3,2.3,0.8,4.6,0.8,4.6s-0.3,2.4-2.7,4
			c0,0-0.7,0.7,0.4,2.3c1.1,1.6,1.7,2.9,1.4,4.5c-0.3,1.6-1.1,1.5-2.3,1.6c-1.2,0.1-1.1,3-1.1,3h1c0,0,1.1-1.4,2.4-1.4
			c1.3,0,1,3.1,1,3.1v5.6c0.1,1.1-1,1.5-1,2.3s0.4,5.3-2.1,5.3c-2.5,0-3.8-1.6-3.9-4c0-1.5,0.1-3.5,0.1-3.5s0.2-1-0.5-1
			c-0.4,0-0.6-0.5-0.8-1.1c-0.1-0.4-0.4-0.8-0.4-1.3l0-2.7c0,0-0.6-0.5-0.6-1.9s0.8-1,0.7-2c-0.1-1,0-5.1,0-5.1s0-1.5,0.9-1.7
			c0-1,0.7-1.6,1.7-1.6c0,0,0.3-0.4,0.1-1.1c-0.3-0.6-0.4,0.1-0.4-1.7c0-1.8-0.1-1.8-0.6-2.7C80.4,121.8,81.5,120.2,81.5,120.2z
			 M127.8,118.9c1.8-0.8,6.7-3.6,8-2.7c0.6,0.5,1.5,1.9,1.7,3.5c0.3,2.4-0.9,5-4.1,6c0,0-0.9,1.5-2.7,2.1c-1,0.3-2.5,3.4-2.5,3.4
			s-1.1,1.5-1.3,3.9c-0.1,0.8,0.1,1.7,0.2,2.5c0.5,1.4,1.3,3.1,2.6,3.6c1.8,0.8,3.1-0.2,4.5-1.1c1.3-0.9,2.8-1.9,3.8-1.9
			c2.1-0.1,4.9,0,4.9-2.6c0.1-2.6-0.6-4.2,1-6.3c0,0,0.1-4.2,0.1-4.3c0.6-0.7,1.5-0.9,1.5-2.4c0-1.4-0.6-2.7-2.5-3.1
			c-0.5-0.1-1.6-1.6-1.7-1.8c-0.3-1-0.3-2-0.3-2s0-1.5,3.5-1.1c3.5,0.4,3.7,3.5,3.7,3.5s0.7,2.2,0.1,3.6c-0.6,1.4-0.7,1.4-0.5,2.5
			c0.2,1.1,0.7,2.4,0.3,3.5c-0.4,1-0.8,1.3-0.7,2.1c0.1,0.8,1.3,1.5,1,3.8c-0.3,2.3-2.5,3.3-2.3,5.9c0.1,2.6-1,4.1-2.8,4.7
			c-1.8,0.6-5.9,7.4-10.3,7.7c-4.4,0.3-6.1,0.6-11.7-4.1c-5.6-4.7-4.6-7.1-3.9-8.2c0.7-1.1,3.1-4.6,2.1-6.8c-1-2.2-0.6-3,0.4-4
			c1-1,2.8-2,3.2-4.3c0.2-1.4,1.5-1.8,2.3-3.7C125.8,119.4,126.7,119.3,127.8,118.9z M45.4,182.3c0,0,1.3-1.1,1.5-1.9
			c0.2-0.8,2.2-0.9,2.3,0.3c0.1,1.1,0.5,3.7,2.5,5.1c1.5,1,0.5,4.8,0,4.9c-0.5,0.1-1.7,0.7-1.4,4.2c0.3,3.4-1.2,5.5-1.2,5.5
			s-0.6,1.5,0.3,1.8c0.9,0.3,2,1.2,1.6,2.3c-0.5,1.1-2.1,2.5-1.7,4.4s0.7,1.8,2.4,1.8c1.7,0,4-0.1,3.9,2.4c0,1.7-4.7,7.3-8.5,8
			c0,0-1-0.6-1.9-0.9c-0.5-0.2-1.1,0.1-1.4-0.2c-2-1.7-1.9-2.7-1.9-5.4c0-1.5,0.2-3.2,0.1-4.5c-0.1-1.2-0.6-1.6-0.8-2.1
			c-0.2-0.5,0.6-2,1.9-4.9c1.3-2.9,1.4-3.4,0.3-6.1c-1-2.7-0.5-2.2-0.1-4.6c0.4-2.4-0.5-4.3,0.5-5.4c1.1-1.3,0.2-2.7,0.7-3.3
			C44.9,183.1,45.4,182.3,45.4,182.3z M199,53.4c0,0-1.6-1.3,1-3.5c1.4-1.1,3.4-1.5,5.8,0.4c1.2,1,1.1,3.6,0.4,5.8
			c-1.5,2-1.7,1.9-1.7,3.5c0,1.5,0,2.2-0.2,2.8c-0.3,0.9-0.9,1.4-0.8,2.4c0.1,1.1,0.1,2.2-0.5,3.4c-0.8,0.7-1.3,1.2-1.5,1.9l0,3.1
			c0,0-1,1.6-1,2.2v7.1c0,0,0.8,1.1,1,2.2c0.3,1.7,0.8,1.6,1.1,2c0.4,0.5,0.9,1,0.9,2.2c0,1-0.7,1.7-1.3,2.3
			c-0.7,0.7-1.4,1.2-2.1,1.2c-2.8,0.1-4-1.8-4.1-2.3c-0.2-1.1-0.9-1-1.3-1.3c-0.3-0.3-0.9-1.1-0.7-2.9c0.1-1.9,0.1-3.5-0.5-4.3
			c-0.9-1-0.5-3.1,0.1-4.2c0.4-0.8,0.5-1,0.7-2.5c0.3-0.9,1.4-1.8,1.5-3.3c0.1-1.3-0.8-1.3-0.8-3.3c0-0.7,0.1-1.6,0.2-2.4
			c0.2-1.2,0.4-1.4,1.3-3c0.9-1.6,1.9-2,3.2-2.7c0,0,0.1-1.5-0.2-3.3c-0.1-1.5-0.1-2.7-0.2-3.1C199.1,53.7,199,53.4,199,53.4z
			 M161.5,45c0,0,0.5-1.3,1.7-1c1.2,0.3,1,0.4,3.3,1.6c2.4,1.2,2.8,1,2.8,2.1c0.1,1.1-0.8,1.9-1.7,2.4c-0.9,0.4-2.1,0.7-2.4,1.8
			c-0.3,1.1-0.8,2.2-1.9,2.3c-1.1,0.1-1.3-1-1.1-1.9c0.1-0.9,1.3-1.5,1.1-3c-0.2-1.5-0.1-2-0.9-2.5c-0.8-0.5-1-0.7-1-1.1
			C161.3,45.1,161.5,45,161.5,45z M162.1,65.6c0,0,1-1.3,2.6-0.4c1.6,0.9,1.4,2.4,0.6,3.4c-0.8,1-1.5,2.3-1.3,3.5
			c0.2,1.2,0.5,4-0.7,4.2c-1.2,0.2-1.3-2.5-1-3.3c0.2-0.8,1.2-0.7,1-2.3c-0.2-1.5-0.9-0.4-1-1.7c-0.1-1.3-0.2-1.2-0.5-2
			C161.2,66.3,162.1,65.6,162.1,65.6z M161.2,83.6c0,0,0.1-1.9,1.7-1.5c1.7,0.4,1,2.2,1.5,2.8c0.5,0.6,2.4,3.2,1.2,4.1
			c-1.2,0.9-2.5-0.9-2.5-1.5c0-0.5-0.3-1.5-0.9-1.9c-0.6-0.3-1.2-0.8-1.1-1.3L161.2,83.6z M161.2,91c0,0-0.4-2.7,1.3-2.5
			c0,0,0.5,0.3,0.6,1.4c0.1,1.2-0.2,1,0.6,1.8c0.8,0.8,0.2,1.5,0.7,1.9c0.5,0.4,1.9,1.7,1.8,2.7c-0.1,1-1,1.6-1,2.4
			c0,0.8-1,1.2-1,2.3s0.2,1,0.5,1.6c0.4,0.7,0.6,2-0.4,2.7c-1,0.7-2.2,2.4-2.1,3c0.1,0.6-0.3,1.8-0.7,1.8c-0.4,0-1.5-0.7-1.4-1.5
			c0.1-0.8,1.1-1.2,1.1-2.7c0-1.5-0.2-4.2,0.3-4.5c0.5-0.3,1.6-1.2,1.7-2.7c0.1-1.5,0.4-1.4,0.6-1.8c0.2-0.4,0.3-1.1-0.4-1
			c-0.8,0-2.2-0.2-2.2-1.3C161.1,93.5,161.2,91,161.2,91z M159.2,115.4c0,0,0.3-1.4,1-1.2c0.7,0.2,1,0.2,1.1,0.5
			c0.2,0.2,0.8,1,0.2,1.6c-0.5,0.6-0.7,0.6-1.5,0.2C159.3,116.2,159.2,115.4,159.2,115.4z M158.6,122c0,0,0.1-2.1,2.1-2.6
			s2.5,4.9,2.5,4.9s0,1.3-0.8,1.7c-0.8,0.5-0.1-0.7-1.5-0.6c-1.5,0.1,0.5-2.2-0.8-2.4c-1.3-0.2-1.6-0.4-1.6-0.6L158.6,122z
			 M157.8,136.1c-0.1-1.1,0.3-1.5,0.9-2.3c0.3-0.7,0.5-1.3,1.2-1.5c0,0,0.7-0.1,1.3,1.4c0.2,1.3,1.1,1.4,1.2,2.7
			c0.4,3.7-0.5,0.2-0.6,4c0,0,0.2,0.9-1.3,2.1c0,0,0.1,2.7-0.8,3.7c0,0-0.1,0.6,0.5,1.5c0.5,0.9,1.5,3.4,0.8,4.9
			c-0.7,1.5-1,0.5-1.2,2.7c-0.2,2.2-0.2,6.2,0.2,6.8c0.4,0.7,0.6,2.4-0.2,2.7c-0.8,0.3-1.5,0-2.2-0.8c-0.7-0.8-1-0.5-0.9-2.5
			c0.1-2,0.1-5.6,0.1-5.6s0.5-1.6-0.2-2.2c-0.7-0.6-0.8-0.6-0.9-1.9c0-0.6-0.1-2.1,0-3.5c0.1-1.4,0-2,0.7-3.1c0.7-1,1.2-2.2,1.7-3.2
			c0.4-1,1.5-1.3,1.6-2.1c0.1-0.8-0.3-1.9-1-2.4C157.9,137,157.8,136.1,157.8,136.1z M157.1,168.9c0,0-0.1-1.6,1.2-2
			c1.3-0.4,2.3,0.2,2,1.2c-0.3,1-0.8,2.4-1.7,2.6c-1,0.2-0.8-1.1-1.3-1.3L157.1,168.9z M155.8,179.8c0-0.1,0-1.7,0.9-1.5
			c0.9,0.1,1.1,0.1,1.2,1.5c0.1,1.4-0.3,1.1,0.2,1.7c0.5,0.7,1,2.1,0.4,3.1c-0.6,1-1.5,1.3-1.5,2.7c0,1.4-0.5,3-1.2,3.1
			c-0.7,0.1-1-0.6-1.1-1.7c-0.1-1.1-0.4-1.6-0.6-1.9c-0.2-0.3-0.1-1.4,0.7-1.6c0.8-0.2,1-1,1-1.4c0-0.4,0.1-0.7,1-1.2
			c0.9-0.5-0.4-1.3-0.6-1.7C156,180.3,155.8,179.8,155.8,179.8z M151.6,194.4c0,0,0.3-2,1.5-1.8c1.2,0.2,1.5,1.2,1.3,2.1
			c-0.2,0.9-0.8,2.6-1.7,2.6c-0.9,0-1.3-2-1.3-2.2C151.4,194.8,151.6,194.4,151.6,194.4z M154.3,209.4c0,0-0.8-1.1-0.1-1.5
			c0.8-0.4,1.5-0.6,2.4,0.1c0.9,0.7,3.1,2.6,1.5,3.4C156.6,212.2,154.3,209.4,154.3,209.4z M76,194.1c0,0,0,0.1-1.2,0.5
			c-1.2,0.5-1.1,2.6-1.2,3.5c-0.1,0.9-1,0.2-1.4,1.8c-0.4,1.6,1.8,3,2.2,3.5c0.4,0.5,1.9,0.8,3.8,1.5c2.3,0.9,3.8,0.4,6.3-1.3
			c4-2.7,3.4-8.2,3.4-10.4c0.1-2.1,0.2-2.1-2-3.3c-2.2-1.2-1.4-0.8-2.7-2.2c-0.8-0.9-2.9-0.8-3.7,0c-0.8,0.8-0.1,3-0.6,4.2
			C78.4,193.2,76,194.1,76,194.1z M68.6,193.5c0,0-0.2-2.5,1.9-3c2-0.5,2.2-1.3,2.6-3.3c0.4-2.1,7.1-4.4,9.5-4.4
			c3.3,0,4.3,1.6,5.8,1.7c1.5,0.1,3-2,5.5-1.6c2.5,0.4,2.4,2.4,1.7,3.3c-0.3,0.4-0.3,3,0.3,3.4c0.6,0.4,0.1,3-0.6,3.7
			c-0.7,0.7-1.3,4.6-2.2,5.7c-0.1,0.1,0.1,4.3,0.1,4.3c-0.6,1.2-1.9,1.6-2.7,2.8c-0.5,0.7-0.1,1-0.4,1.5c-1.2,2.6-2.6,3.9-4.5,3.8
			c-2.5-0.1-4-0.3-4.7,1.3c-0.7,1.6-1.4,2-3.9,2.1c-2.4,0.1-4.5,0.2-5.4-1.1c-0.9-1.4-2.9-1.4-2.9-1.4s-1.1-0.3-1.4-1.7
			c-0.3-1.5-0.7-2.3-1.2-2.4c-0.5-0.2-0.5-3.9-0.3-4.2c0.2-0.3,0.6-0.9,0.8-1.7c0.2-1,0.3-2.2,0.4-3.6c0,0,0.8-0.2,0.8-1.8
			c0.1-1.6,0-2,0.6-2.5L68.6,193.5z M129,192.8c0,0-0.1,0.3-0.7,1.2c-0.6,0.9-5.6,0.7-6.2,0.7c-0.7-0.1-2.3,0.3-2.6,2.7
			c-0.1,0.7,0.8,2.6,1.3,3.5c1,1.3,2.5,2.3,3.8,2.4c1.8,0.1,1.3,0.2,2.5-0.5c0.4-0.2,1-0.6,2.1-1c1.2-0.5,1.8-0.8,2.3-1.5
			c1.2-1.7,0.6-3.7,1.3-4.2c0.9-0.6,1.4-1.8,1.4-1.8s0.6-1.9,0-3c-0.3-0.5-0.9-0.7-1.7-0.8C129.8,189.8,129,192.8,129,192.8z
			 M120.3,207.5c-0.4-0.6-0.5-0.6-0.6-0.6c-0.1,0-0.1,0.5-0.1,0.6C120.4,207.6,120.3,207.5,120.3,207.5z M114.2,194.5
			c0-0.2,0-1.3,0.1-2.4c0.2-1.4,1.2-3.2,1.8-3.7c0.8-0.8,2.4-3,3.9-3.1c1.7-0.1,4.2-0.5,5.2-2c1-1.5,0.9-2.2,2.6-2.3
			c2-0.1,0.7,1,3.2,0.8c2.5-0.2,1.2-1.8,2.6-2.5c0.6-0.3,2.2-0.5,3.1-0.4c1.4,0.3,1,1.1,2.5,1c1.5-0.1,2.4,0,2.5,0.8
			c0,1-0.2,1.2-0.6,1.4c-0.2,0.1-0.1,2.7-0.1,2.7s0.2,1.8-0.7,3.1c-0.2,0.8-0.3,1.6-0.6,2.5l-0.1,7c0,0-1.2,1.3-1,4.8
			c0.1,0.7-0.6,0.8-0.8,1.5c-0.3,0.9-0.7,1.5-1.3,2.8c-1.5,3.3-4.9,4-4.9,4s-1.9,0.6-2.4,2.2c-0.6,1.7-1.3,2-2.6,2.1
			c-1.4,0.1-2.3,0.1-2.7,0.7c-0.4,0.6-0.9,0.3-1.4-0.3c-0.5-0.5-1.4-2.7-4.2-2.6c-1.5,0.1-2.9,0-3.4-1.1c-0.5-1.3-1.3-2.4-1.5-2.8
			c-0.2-0.4-0.2-1.9-0.1-2.8c0-0.5-0.1-1,0-1.5c0.2-0.9,1.3-1.7,2-2l0-2.2c0,0-0.9-3.3-1-4.8C114.1,194.9,114.2,194.6,114.2,194.5z
			 M135.5,66.4c-0.4,0.2-0.4,0.6-0.4,0.7c-0.4,0.1-0.3,0.6-0.3,0.7c0.7-0.2,0.7-0.5,0.7-0.7c0.4-0.2,0.4-0.7,0.4-0.8L135.5,66.4z
			 M136.9,47.1c0,0,1.7-2.2,3-2c1.3,0.3,1.9,1.7,1.9,2.9c0,2.1-2.9,4.1-1.2,6.6c0,0.7,0.6,1.5,0.6,2.4c0,0.1-0.2,0.4-0.3,0.9
			c-0.1,2.5-0.1,8.9-0.2,10.2c0,0.9-2.3,6.3-2.2,7.6c0.1,1.4-0.3,2.2-2.4,3.8c-0.6,0.4-3,1-2.7,2.9c0.2,1.9,1.5,4,1.5,4
			s2.3,3.5,0.5,4.8c-0.8,0.5-1.1,1.5-1.2,2.7c-0.1,1.1-0.9,2.3-3.8,1.6c0,0-0.8-0.7-1.4-1.4c-0.8-0.9-1.9-1.3-1.9-3
			c0-3.1,0.1-9,0.1-9c-0.1-1.1-1.2-2.4-0.4-3.9c0.8-1.5,1.1-2.9,1.5-4.6c0.3-1.6,1.9-3.2,1.9-4.4c0-0.5,0-1.2-0.3-1.9
			c-0.4-1.1-0.8-1.8-0.5-3c0.5-1.8,1.3-2.3,2.9-2.3c1.5,0,3.2-2,3.3-3.7c0.1-1.6,0-3.1,0-3.7c-0.2-1.2-0.9-1.9-0.2-3.5
			c0.4-0.9,0.3-2,0.3-2s0.6-0.9,1-1.4L136.9,47.1z M206.8,118.2c0,0.9,0.7,1.5,1.5,1.5c0.9,0,1.5-0.7,1.5-1.5c0-0.9-0.7-1.5-1.5-1.5
			C207.5,116.6,206.8,117.3,206.8,118.2z M193.8,114.3c0.5,0.1,0.7,0.1,0.8-0.1c0.7-0.3,0.7-0.5,0.7-0.8c0-0.3-0.8-0.1-0.8-0.1
			c-0.5,0.7-0.7,0.5-0.7,0.7L193.8,114.3z M202.2,111.9c0.6-0.4,0.6-0.5,0.6-0.6c0-0.1-0.5-0.1-0.6-0.1
			C202,111.9,202.2,111.9,202.2,111.9z M202.1,132.2c0.3,0.3,0.5,0.5,0.5,0.7c0.5,0.2,0.5-0.8,0.4-0.9c-0.3-0.5-0.5-0.4-0.8-0.5
			C202,131.5,202.1,132.2,202.1,132.2z M192.2,128.5c0,0-1.2-0.5-1.3-2.5c-0.2-2.1,0-1.9-0.7-2.5c-0.7-0.6-1-1.1-1.4-2.3
			c-0.3-1-0.8-1.7-0.7-2.7c0.1-1,0.1-1.6,0.6-2.5c0.3-0.6-0.2-2.8,0.4-3.8c0.5-0.8,2.8-3.5,5-3.7c2.2-0.2,1.3-0.8,2.9-0.9
			c1.6-0.1,2.5-0.6,3.4-1.1c0.9-0.5,0.8-0.8,3-1c2.1-0.2,3.7-0.7,4.8-0.8c0.5,0,1.3-0.1,1.7-0.2c0.4-0.2,1.8,0,1.9,1.1
			c0.1,1.1,0.3,2.2,0.5,2.8c0.4,1.6,1.4,2.1,1.5,2.7c0,0.7,0.3,1.9-0.5,2.5c0,0,0,2.5-0.4,3c-0.3,0.3-0.5,0.7-0.5,1.4
			c-0.2,1.6,0.4,2.8-1,3.2c-1.4,0.4-1.9,0.7-2.1,2.5c-0.1,1.8-0.1,2.5-0.6,2.8c-0.3,0.2-1.4,3.1-2.5,4c-1,0.8-2.4,3.9-3.3,4.8
			c-0.7,0.6-1.1,1.6-1.8,2.2c-0.6,0.6-1.3,0.9-1.3,0.9c0.4,0.2,0.6,0,0.9,0.1c0.3,0.1,0.1,0.6-0.2,1.2c-0.4,0.7-1.6,0.1-1.9,0.8
			c-0.3,0.7-1.1,1.8,0,2.4c0.5,0.3,1-0.2,1.1,0.8c0,1,0.9,1.8,1.8,1.7c0.9,0,1.6-1.7,0.9-2.2c-0.5-0.4,3.8-0.5,3.9-0.7
			c1.9,0.4,5.8-0.8,6-0.5c0.1,0.2,0.8,0.4,1.3,0.3c0.4-0.1,0.5-0.3,0.6-0.5c0.2-0.5,2.4-0.9,2.8-0.9c0.5,0.1,1.6,0,1.7,1.1
			c0.1,1.2,0,1.7,0.8,2.3c0.8,0.7,1.6,1.2,1.4,2.2c-0.3,1-1.2,1-1.9,1c-0.6-0.1-4.4,0.5-4.6,1.3c-0.2,0.8-1,1.8-1.9,1.7
			c-0.9-0.1-1.2-0.7-1.8-0.7c-0.6,0-0.5,0.6-1.9,0.7c-0.6,0-3.1,0.9-4.3,0.7c-2.6,0.1-5.4-0.1-5.8,0.1c-0.8,0.5-3.3-0.1-3.3-0.1
			s-2.2-0.9-4-0.9c-2.2,0-4.4-0.8-4.4-0.8s-0.8-0.2-2.4,0.2c-1.6,0.4-1.5-1.6-1.5-1.6s-0.2-1.2,1.6-1.4c0.6-0.1,1.6-3.7,2.5-3.7
			c1.1,0,3.3-2.6,3.3-3c0-0.4,3.1-2.8,3.6-3.5c0.2-0.3,1.7-3.2,1.9-3.5c0.3-0.4,1-2.6,1-2.6s0-0.8,0.9-0.9c1,0,1.6,0.1,1.6-0.6
			c0-0.9-0.6-5.1,0.3-4.9c0.9,0.2,2,0,2.2-0.4c0.3-0.7-0.2-2.4,1-2.9c1.2-0.5,2.8-0.3,2.7-2c-0.1-1.7-0.5-3.1-0.5-3.9
			c0-0.5,0.2-2.2-0.9-2.2c-1.2,0-4.6,0.8-5.2,0.9c-0.6,0.1-2.4,0.2-2.6,1.4c-0.2,1.2,0,2,0,2s0.6,1.7-0.6,2.4
			c-1.2,0.7-0.1,3.3,0.4,4.2c0,0-1.7,1.7-1.8,2.1C194.3,127,192.2,128.5,192.2,128.5z M197.6,175.4c0,0-0.4,0.5-0.7,1.2
			c-0.3,0.7-0.5,1-0.8,1.1c-0.3,0.2-0.2,1.1-0.2,2c0,1-2.1,6-3,6.6c-0.9,0.6-2.1,4.5-2.7,4.8c-0.6,0.3-2,2.5-2.6,2.5
			c-0.6-0.1-0.8,1.4,0.2,1.5c0.9,0.1,0.3-0.4,2.2-0.4c1.9,0,1.8,1.1,3.3,1c1.5-0.1,1.4,0.4,2.3,0.3c1,0,0.4-0.1,1.7-0.7
			c1.3-0.6,1.6-3.3,1.7-4.4c0.1-1.2,1.7-3.3,2-3.5c0.3-0.2,1-3.8,0.5-4.3c-0.5-0.4-0.5-4.6-0.5-6.4s0.4-1.4,0.3-2.7
			c-0.1-1.3-0.9-1-1.4-0.9c-0.6,0.1-0.4,1-1,1.3C198.3,174.7,197.6,175.4,197.6,175.4z M196.8,207.9c-0.5-0.1-0.5,0.7-0.4,0.7
			c0.3-0.2,0.3-0.7,0.3-0.7L196.8,207.9z M199.4,167.6c0-0.6,0.6-1.6,2.1-1.7c0.7-0.1,1.3,0.2,1.9,0.4c0.6,0.1,1.2,0.1,1.7,0.4
			c0.5,0.3-0.1,2.4-1.3,3.2c-0.5,0.4-0.1,2.3,0.7,2.8c1.2,0.7,1.4,1.2,2.1,1.3c0.7,0.1,2.3,0,2.3,1.3c0.1,1.3-0.4,1-0.4,1.6
			c0,0.6,0.1,0.9,0.6,1.2c0.5,0.3,0.3,2.7,0.3,2.7s-0.3,1.9-1.2,2.5c-0.4,0.3-0.6,1-0.9,1.9c-0.3,1-0.5,1.1-0.7,2.6
			c-0.2,1.5,0.4,3.5-0.3,3.9c-0.7,0.5-0.8,2.1-0.7,2.5c0.1,0.4-0.4,1.1,0.6,1.1c1,0,1.3-0.3,1.4-0.5c0.1-0.2,1.3-0.5,1.7-0.2
			c0.4,0.3,0.8,0.7,0.7,1.3c0,0.6-0.2,1.1,0.7,1.1c0.9,0,0.1-1.6,0.4-1.8c0.3-0.2,0.5-0.7,1.1-0.7c0.6,0,3.3-0.2,3.5,0.8
			c0.2,1,0.2,5.8-1.2,5.9c-1.4,0.1-1.3,0-1.6,0.5c-0.3,0.5-4.2,0.7-5,1.1c-0.6,0.3-1.9,0.1-2.7,0.2c-0.3-0.4-0.4-0.7-0.9-1.1
			c-0.5-0.4-1.9,0-1.9,0.8c0,0.7-0.9,1.4-0.9,2.8c0,1.3,0.2,6.7,0,7.2c-0.2,0.5-1,0.9-1,1.8c0,0.9-0.6,2.1-0.9,2.6
			c-0.2,0.5-0.3,3.5-0.3,3.5s0.1,0.9-0.6,1c-0.7,0.1-1.8-1.8-2.9-1.7c-1.1,0.1-4.5-3.2-5.2-3.7c0,0-0.2-3.7,0.4-3.7
			c0.6-0.1,1.8-2,2-2.4c0.3-0.7,0.6-3.4,1.1-3.4c0.5,0,1.9,0.2,1.9-0.4c0-0.6,0-0.7-0.9-1.2c-1.1-0.6-1.5-2.1-2.2-2.7
			c-0.4-0.3-1.4-0.4-1.9-0.4c-0.7,0-2.9,0.6-3.8,1.1c-0.9,0.5-4.6,1.3-4.8,0.7c-0.2-0.6-0.9-2.2-1.4-2c-0.6,0.2-1.1,1-2.1,1
			c-1.1,0-1.8-0.9-1.8-2.2c0-1.3-0.1-2.4,0.9-3.4c1.3-1.3,0.9-4.1,1.3-4.6c0.5-0.5,1.7-2,3.4-2.2c1.7-0.3,2.5-3.1,2.9-3.7
			c0.5-0.7,3.1-4.1,3.2-4.9c0,0,1.2-3.8,1.3-4.2c0.2-1.3,3.2-3.2,3.9-4c0.4-0.4,1-1.1,1.2-1.2C195.7,172.1,199.4,168.2,199.4,167.6z
			 M153.8,217.7c0,0,0.3-2,1.5-1.8c1.2,0.2,1.5,1.2,1.3,2.1c-0.2,0.9-0.8,2.6-1.7,2.6c-0.9,0-1.3-2-1.3-2.2
			C153.6,218.1,153.8,217.7,153.8,217.7z"/>
	</g>
</g>
</svg>
