<?xml version="1.0" standalone="no"?>
<!DOCTYPE svg PUBLIC "-//W3C//DTD SVG 20010904//EN"
 "http://www.w3.org/TR/2001/REC-SVG-20010904/DTD/svg10.dtd">
<svg version="1.0" xmlns="http://www.w3.org/2000/svg"
 width="418.000000pt" height="120.000000pt" viewBox="0 0 418.000000 120.000000"
 preserveAspectRatio="xMidYMid meet">

<g transform="translate(0.000000,120.000000) scale(0.100000,-0.100000)"
fill="#000000" stroke="none">
<path d="M0 600 l0 -600 600 0 600 0 0 600 0 600 -600 0 -600 0 0 -600z m823
418 c-18 -20 -18 -20 -24 4 -8 32 -1 40 22 27 20 -10 20 -11 2 -31z m-135 -31
c1 -46 -4 -74 -18 -102 -11 -21 -17 -48 -15 -59 7 -28 -9 -50 -30 -42 -14 5
-16 16 -12 69 8 84 9 91 30 112 10 9 16 24 13 32 -6 16 10 53 23 53 4 0 8 -28
9 -63z m347 33 c3 -5 -2 -35 -11 -66 -10 -34 -14 -75 -11 -101 5 -51 -14 -69
-39 -37 -16 21 -13 89 7 152 7 20 13 43 15 50 4 14 30 16 39 2z m-224 -115
c-10 -33 -11 -32 -16 5 -3 30 4 45 16 33 5 -5 5 -22 0 -38z m2 -69 c3 -8 1
-17 -6 -19 -9 -3 -9 -7 0 -19 14 -16 0 -88 -17 -88 -5 0 -5 12 -1 28 4 15 6
46 5 70 -3 41 8 57 19 28z m253 -121 c7 -30 -17 -96 -53 -143 -14 -18 -23 -35
-22 -37 2 -2 24 1 49 5 37 7 47 6 57 -7 11 -14 9 -18 -10 -28 -23 -13 -160
-15 -173 -3 -4 4 10 26 30 48 20 22 36 44 36 49 0 5 11 22 24 38 16 19 22 34
16 43 -11 18 -40 5 -40 -19 0 -25 -10 -51 -19 -51 -4 0 -13 12 -20 26 -17 39
4 74 54 90 58 17 64 17 71 -11z m-345 -47 c8 -82 -5 -131 -43 -163 -36 -31
-57 -31 -93 -4 -23 19 -26 27 -20 58 13 79 66 134 98 102 8 -8 3 -20 -21 -44
-49 -51 -41 -86 15 -65 39 15 61 83 36 111 -15 16 -14 17 5 17 12 0 23 -6 23
-12z m-325 -13 c4 -8 3 -23 -1 -32 -11 -27 -12 -63 -2 -63 10 0 3 -77 -7 -88
-4 -3 -12 0 -19 7 -13 13 -16 143 -4 174 8 21 26 22 33 2z m404 -17 c0 -19 -2
-20 -10 -8 -13 19 -13 30 0 30 6 0 10 -10 10 -22z m-5 -111 c-2 -28 -4 -68 -4
-86 -1 -52 -20 -25 -21 29 0 38 4 94 9 116 0 3 5 3 10 -1 5 -3 8 -29 6 -58z
m231 -133 c-4 -10 1 -22 11 -29 15 -11 15 -18 5 -52 -17 -57 -15 -62 14 -57
22 4 25 1 22 -18 -2 -18 -10 -24 -34 -26 -30 -3 -32 -6 -38 -53 -7 -53 -8 -54
-38 -38 -20 11 -20 26 -2 74 6 13 1 16 -22 14 -74 -6 -85 17 -34 73 17 18 30
37 30 44 0 17 61 84 77 84 10 0 13 -6 9 -16z m-236 2 c0 -3 -4 -8 -10 -11 -5
-3 -10 -1 -10 4 0 6 5 11 10 11 6 0 10 -2 10 -4z m-586 -157 c-4 -57 -2 -69
11 -69 24 0 17 -22 -16 -48 -14 -10 -20 -10 -33 4 -14 13 -16 29 -10 93 4 42
11 87 16 101 9 24 10 24 23 7 9 -13 12 -40 9 -88z m470 32 c-1 -55 -4 -66 -30
-91 -32 -31 -47 -36 -81 -25 -28 9 -31 19 -24 84 5 48 10 57 37 72 36 20 62
28 84 25 12 -1 15 -16 14 -65z m106 52 c0 -27 -16 -48 -25 -34 -4 7 -2 18 4
25 6 7 8 16 4 19 -3 4 -1 7 5 7 7 0 12 -8 12 -17z m-338 -27 c4 -22 -7 -66
-24 -103 -13 -26 -69 -47 -103 -39 -46 12 -44 86 5 136 23 23 36 28 73 28 39
-1 47 -5 49 -22z m313 -35 c3 -5 1 -12 -5 -16 -5 -3 -10 1 -10 9 0 18 6 21 15
7z m20 -82 c11 -17 -1 -21 -15 -4 -8 9 -8 15 -2 15 6 0 14 -5 17 -11z m-5 -49
c0 -5 -4 -10 -10 -10 -5 0 -10 5 -10 10 0 6 5 10 10 10 6 0 10 -4 10 -10z"/>
<path d="M968 314 c-14 -30 -22 -55 -17 -55 26 -5 32 -2 43 26 7 17 10 42 7
57 -6 25 -8 23 -33 -28z"/>
<path d="M620 265 c-7 -8 -21 -15 -31 -15 -23 0 -25 -13 -5 -29 19 -16 51 0
59 29 7 25 -7 34 -23 15z"/>
<path d="M349 271 c-27 -30 -30 -50 -9 -61 24 -13 26 -13 44 6 21 20 21 60 0
68 -19 7 -15 8 -35 -13z"/>
<path d="M1330 600 l0 -600 1425 0 1425 0 0 600 0 600 -1425 0 -1425 0 0 -600z
m250 366 l0 -95 42 -3 c23 -2 43 -9 46 -15 3 -10 -13 -13 -57 -13 l-61 0 0
110 c0 91 3 110 15 110 12 0 15 -17 15 -94z m305 74 c0 -8 -8 -16 -17 -18 -13
-2 -18 3 -18 18 0 15 5 20 18 18 9 -2 17 -10 17 -18z m75 -18 c0 -37 1 -38 29
-34 58 8 84 -86 36 -133 -29 -30 -45 -31 -76 -6 -21 17 -24 30 -27 100 -5 90
0 111 23 111 11 0 15 -11 15 -38z m330 18 c0 -13 -7 -20 -20 -20 -13 0 -20 7
-20 20 0 13 7 20 20 20 13 0 20 -7 20 -20z m-496 -72 c27 -38 20 -48 -29 -48
-28 0 -45 -4 -45 -12 0 -21 33 -48 57 -48 33 0 24 -24 -10 -28 -60 -7 -103 92
-60 140 23 25 68 23 87 -4z m86 -53 c0 -60 -3 -75 -15 -75 -12 0 -15 15 -15
75 0 60 3 75 15 75 12 0 15 -15 15 -75z m240 63 c0 -9 3 -9 12 0 7 7 21 12 33
12 35 0 45 -20 45 -87 0 -49 -3 -63 -15 -63 -11 0 -15 12 -15 44 0 54 -8 76
-26 76 -20 0 -34 -33 -34 -79 0 -30 -4 -41 -15 -41 -12 0 -15 15 -15 75 0 60
3 75 15 75 8 0 15 -5 15 -12z m170 -63 c0 -60 -3 -75 -15 -75 -12 0 -15 15
-15 75 0 60 3 75 15 75 12 0 15 -15 15 -75z m150 67 c0 -4 -16 -31 -35 -59
-19 -29 -35 -55 -35 -58 0 -3 16 -5 35 -5 19 0 35 -4 35 -10 0 -6 -27 -10 -60
-10 -33 0 -60 4 -60 8 0 5 16 31 35 58 l35 49 -30 3 c-18 2 -30 9 -30 18 0 10
14 14 55 14 30 0 55 -3 55 -8z m-860 -362 c0 -79 2 -91 20 -100 14 -8 26 -8
40 0 18 9 20 21 20 100 0 83 1 90 20 90 19 0 20 -7 20 -90 0 -77 -3 -93 -20
-110 -20 -20 -83 -27 -107 -12 -21 13 -33 62 -33 138 0 67 2 74 20 74 19 0 20
-7 20 -90z m358 73 c-5 -26 -38 -29 -38 -4 0 15 6 21 21 21 14 0 19 -5 17 -17z
m607 -3 c0 -8 -8 -16 -17 -18 -13 -2 -18 3 -18 18 0 15 5 20 18 18 9 -2 17
-10 17 -18z m205 0 c0 -13 -7 -20 -20 -20 -13 0 -20 7 -20 20 0 13 7 20 20 20
13 0 20 -7 20 -20z m60 0 c0 -13 -7 -20 -20 -20 -19 0 -27 20 -13 33 13 14 33
6 33 -13z m-170 -25 c0 -18 5 -25 20 -25 11 0 20 -5 20 -11 0 -6 -9 -13 -20
-16 -17 -4 -20 -14 -20 -54 0 -37 4 -49 15 -49 8 0 15 -7 15 -16 0 -13 -6 -15
-27 -9 -36 9 -43 21 -43 74 0 30 -6 48 -17 57 -17 12 -17 13 0 19 9 4 17 13
17 19 0 14 20 36 32 36 4 0 8 -11 8 -25z m281 -25 c10 0 19 -7 19 -15 0 -8 -9
-15 -20 -15 -17 0 -20 -7 -20 -46 0 -37 4 -47 20 -51 11 -3 20 -9 20 -14 0
-16 -27 -21 -49 -9 -17 9 -21 20 -21 64 0 39 -4 55 -15 60 -8 3 -15 10 -15 16
0 5 7 10 15 10 8 0 15 9 15 19 0 28 24 32 28 4 2 -15 10 -23 23 -23z m-1079
-7 c24 -22 27 -143 3 -143 -11 0 -15 12 -15 44 0 54 -8 76 -26 76 -20 0 -34
-33 -34 -79 0 -30 -4 -41 -15 -41 -12 0 -15 15 -15 76 0 70 2 76 19 71 10 -2
25 -1 32 4 20 13 30 11 51 -8z m619 7 c5 0 9 -7 9 -15 0 -11 -7 -14 -24 -9
-25 6 -50 -16 -27 -24 7 -2 24 -14 39 -27 23 -20 25 -25 14 -49 -10 -22 -18
-26 -52 -26 -29 0 -40 4 -40 15 0 11 7 14 24 9 39 -9 40 14 1 50 -24 23 -33
39 -29 51 8 19 43 36 62 29 8 -2 18 -4 23 -4z m347 -78 l3 -71 -47 2 c-78 3
-89 60 -15 81 20 6 31 15 31 27 0 20 -24 26 -35 9 -10 -17 -37 -11 -33 7 4 20
44 33 73 23 17 -6 20 -18 23 -78z m-878 3 c0 -60 -3 -75 -15 -75 -12 0 -15 15
-15 75 0 60 3 75 15 75 12 0 15 -15 15 -75z m88 23 l20 -53 14 49 c12 44 31
67 44 53 3 -3 -5 -37 -17 -77 -30 -93 -51 -93 -85 -1 -28 74 -29 81 -10 81 8
0 23 -23 34 -52z m204 35 c10 -9 18 -24 18 -35 0 -15 -8 -18 -45 -18 -25 0
-45 -3 -45 -8 0 -21 34 -52 56 -52 34 0 26 -24 -9 -28 -60 -7 -103 92 -60 140
20 22 61 23 85 1z m89 5 c0 -10 2 -10 6 0 6 16 43 16 43 -1 0 -7 -10 -17 -22
-22 -19 -8 -24 -19 -26 -62 -2 -38 -7 -53 -18 -53 -11 0 -14 16 -14 75 0 60 3
75 15 75 8 0 15 -6 16 -12z m229 -63 c0 -60 -3 -75 -15 -75 -12 0 -15 15 -15
75 0 60 3 75 15 75 12 0 15 -15 15 -75z m-960 -250 l0 -45 45 0 45 0 0 45 c0
33 4 45 15 45 12 0 15 -19 15 -110 0 -91 -3 -110 -15 -110 -11 0 -15 12 -15
50 l0 50 -45 0 -45 0 0 -50 c0 -38 -4 -50 -15 -50 -12 0 -15 19 -15 110 0 91
3 110 15 110 11 0 15 -12 15 -45z m255 -29 c14 -10 20 -30 23 -79 l4 -65 -50
0 c-61 -1 -81 16 -64 54 8 15 23 27 42 30 21 5 30 12 30 25 0 20 -24 26 -35 9
-10 -16 -35 -12 -35 5 0 14 30 33 56 34 5 1 19 -5 29 -13z m169 -2 c22 -22 23
-144 1 -144 -12 0 -15 13 -15 55 0 42 -4 57 -16 62 -25 9 -44 -24 -44 -74 0
-32 -4 -43 -15 -43 -12 0 -15 15 -15 75 0 60 3 75 15 75 8 0 15 -5 15 -12 0
-8 6 -6 17 5 21 21 37 22 57 1z m167 6 c16 -9 19 -22 19 -80 0 -56 -3 -70 -15
-70 -12 0 -15 13 -15 60 0 53 -2 60 -20 60 -25 0 -40 -29 -40 -79 0 -30 -4
-41 -15 -41 -12 0 -15 15 -15 75 0 60 3 75 15 75 8 0 15 -5 15 -12 0 -8 6 -6
17 5 20 20 27 21 54 7z m163 -11 c52 -41 26 -139 -36 -139 -46 0 -68 25 -68
77 0 74 50 104 104 62z m304 -7 c23 -30 14 -42 -33 -42 -33 0 -45 -4 -45 -15
0 -24 37 -55 66 -55 14 0 23 -4 19 -10 -11 -18 -74 -11 -95 10 -20 20 -28 83
-12 106 23 34 75 38 100 6z m132 5 c0 -7 -10 -17 -22 -22 -19 -8 -24 -19 -26
-62 -2 -38 -7 -53 -18 -53 -11 0 -14 16 -14 76 0 70 2 76 19 71 10 -2 25 -1
32 4 15 9 29 3 29 -14z m-342 -38 l19 -51 13 47 c12 41 32 66 45 53 3 -3 -6
-36 -18 -74 -32 -94 -50 -93 -87 4 -26 66 -27 72 -10 72 13 0 24 -15 38 -51z"/>
<path d="M1971 956 c-7 -8 -11 -32 -9 -53 2 -30 7 -38 23 -38 22 0 32 38 21
81 -7 27 -18 30 -35 10z"/>
<path d="M1730 960 c-12 -8 -9 -10 13 -10 16 0 26 4 22 10 -8 12 -16 12 -35 0z"/>
<path d="M2743 535 c-3 -9 -3 -18 0 -22 10 -10 37 6 37 22 0 20 -29 20 -37 0z"/>
<path d="M2165 610 c-3 -5 3 -10 15 -10 12 0 18 5 15 10 -3 6 -10 10 -15 10
-5 0 -12 -4 -15 -10z"/>
<path d="M1798 202 c-10 -2 -18 -12 -18 -23 0 -23 13 -25 30 -4 15 19 10 32
-12 27z"/>
<path d="M2272 258 c-17 -17 -15 -73 3 -88 29 -24 46 -4 43 47 -3 50 -21 66
-46 41z"/>
<path d="M2570 260 c0 -5 9 -10 20 -10 11 0 20 5 20 10 0 6 -9 10 -20 10 -11
0 -20 -4 -20 -10z"/>
</g>
</svg>
