<svg version="1.1" id="Layer_1" xmlns="http://www.w3.org/2000/svg" xmlns:xlink="http://www.w3.org/1999/xlink" x="0px" y="0px"
	 width="100%" viewBox="0 0 189 266" enable-background="new 0 0 189 266" xml:space="preserve">
<path fill="#010000" opacity="1.000000" stroke="none" 
	d="
M95.000000,267.000000 
	C63.733345,267.000000 32.466690,267.000000 1.000000,267.000000 
	C1.000000,229.979340 1.000000,192.958328 1.153968,154.981003 
	C2.173266,155.451614 3.339774,156.777481 3.857591,158.320999 
	C9.363638,174.733414 20.442156,185.335419 37.043205,190.010788 
	C50.406849,193.774384 63.835144,193.002396 76.925789,188.885956 
	C84.854759,186.392609 92.433578,182.785751 100.169708,179.679169 
	C99.922745,179.038345 99.675781,178.397507 99.428818,177.756683 
	C97.947418,178.230667 96.484459,178.775543 94.981476,179.166565 
	C87.758598,181.045746 80.623909,183.628922 73.277626,184.604324 
	C44.242088,188.459488 23.849771,168.768845 27.176495,140.551132 
	C28.673685,127.851761 32.530014,115.879875 38.563202,104.622566 
	C51.347523,80.768356 69.835403,62.096573 91.774834,46.673420 
	C94.749290,44.582413 95.743797,42.436287 95.718056,38.912483 
	C95.625748,26.276350 95.878014,13.637699 96.000000,1.000000 
	C127.267296,1.000000 158.534592,1.000000 190.000000,1.000000 
	C190.000000,38.687328 190.000000,76.375008 189.692413,114.841095 
	C188.648071,113.815804 187.781860,112.053154 187.194855,110.201973 
	C182.031082,93.917976 171.321747,82.855972 154.953323,78.362625 
	C131.651520,71.965958 110.065071,77.285034 90.026123,90.187225 
	C90.371101,90.318611 90.685799,90.275360 91.388733,90.163673 
	C100.424416,87.821098 108.954826,84.369987 117.741508,83.496315 
	C142.821106,81.002609 165.834030,92.685776 163.829605,126.015678 
	C163.083496,138.422134 159.163406,150.144958 153.504990,161.213272 
	C141.181061,185.319946 123.022400,204.325699 101.139694,219.827454 
	C96.626045,223.024918 95.028450,226.228973 95.170616,231.592468 
	C95.483200,243.385178 95.099487,255.196365 95.000000,267.000000 
M70.983917,164.974228 
	C84.596649,176.794174 110.022636,176.883652 122.602806,162.722626 
	C123.531883,161.772522 124.544373,160.889999 125.377350,159.862015 
	C135.592697,147.255264 138.174942,133.189087 131.650787,118.343353 
	C125.361031,104.031044 114.132378,95.732391 97.378677,94.465851 
	C93.302353,94.831345 89.226036,95.196846 85.171082,94.996964 
	C85.622337,94.034920 86.073586,93.072884 86.524841,92.110840 
	C86.049110,92.040977 85.573372,91.971115 85.097641,91.901253 
	C85.097641,93.127937 85.097641,94.354630 84.445793,95.927513 
	C80.269432,97.999344 75.633080,99.467834 71.993019,102.243080 
	C51.721279,117.698647 50.393749,147.057999 69.185585,163.519440 
	C69.613655,163.860306 70.041718,164.201172 70.983917,164.974228 
M104.545494,175.077606 
	C103.909981,175.287415 103.274475,175.497223 102.638969,175.707031 
	C102.778748,175.981720 102.918526,176.256424 103.058304,176.531113 
	C103.608604,176.172745 104.158913,175.814377 104.545494,175.077606 
M100.499626,176.526581 
	C100.499626,176.526581 100.484947,176.486832 100.499626,176.526581 
z"/>
<path fill="#E32129" opacity="1.000000" stroke="none" 
	d="
M89.995827,90.012589 
	C110.065071,77.285034 131.651520,71.965958 154.953323,78.362625 
	C171.321747,82.855972 182.031082,93.917976 187.194855,110.201973 
	C187.781860,112.053154 188.648071,113.815804 189.692413,115.309753 
	C190.000000,124.687561 190.000000,134.375122 189.685699,144.200623 
	C188.953079,145.019150 188.298111,145.652344 188.150833,146.387253 
	C183.644485,168.874603 173.102493,188.521576 159.651718,206.763901 
	C143.200424,229.075592 123.184174,247.701111 100.527176,263.580200 
	C99.426491,264.351593 98.830833,265.843567 98.000008,267.000000 
	C97.250000,267.000000 96.500000,267.000000 95.375000,267.000000 
	C95.099487,255.196365 95.483200,243.385178 95.170616,231.592468 
	C95.028450,226.228973 96.626045,223.024918 101.139694,219.827454 
	C123.022400,204.325699 141.181061,185.319946 153.504990,161.213272 
	C159.163406,150.144958 163.083496,138.422134 163.829605,126.015678 
	C165.834030,92.685776 142.821106,81.002609 117.741508,83.496315 
	C108.954826,84.369987 100.424416,87.821098 91.138435,90.104828 
	C90.331863,90.080482 90.163849,90.046532 89.995827,90.012589 
z"/>
<path fill="#E32129" opacity="1.000000" stroke="none" 
	d="
M95.625000,1.000000 
	C95.878014,13.637699 95.625748,26.276350 95.718056,38.912483 
	C95.743797,42.436287 94.749290,44.582413 91.774834,46.673420 
	C69.835403,62.096573 51.347523,80.768356 38.563202,104.622566 
	C32.530014,115.879875 28.673685,127.851761 27.176495,140.551132 
	C23.849771,168.768845 44.242088,188.459488 73.277626,184.604324 
	C80.623909,183.628922 87.758598,181.045746 94.981476,179.166565 
	C96.484459,178.775543 97.947418,178.230667 99.428818,177.756683 
	C99.675781,178.397507 99.922745,179.038345 100.169708,179.679169 
	C92.433578,182.785751 84.854759,186.392609 76.925789,188.885956 
	C63.835144,193.002396 50.406849,193.774384 37.043205,190.010788 
	C20.442156,185.335419 9.363638,174.733414 3.857591,158.320999 
	C3.339774,156.777481 2.173266,155.451614 1.153968,154.512344 
	C1.000000,144.645767 1.000000,134.291550 1.329775,123.769669 
	C2.062258,122.903351 2.687303,122.248619 2.835332,121.499611 
	C7.145772,99.689339 17.277185,80.566986 30.159864,62.779404 
	C46.711426,39.926067 66.999893,20.881920 90.050934,4.693837 
	C91.288361,3.824824 92.028412,2.247563 93.000000,1.000001 
	C93.750000,1.000000 94.500000,1.000000 95.625000,1.000000 
z"/>
<path fill="#010000" opacity="1.000000" stroke="none" 
	d="
M98.468666,267.000000 
	C98.830833,265.843567 99.426491,264.351593 100.527176,263.580200 
	C123.184174,247.701111 143.200424,229.075592 159.651718,206.763901 
	C173.102493,188.521576 183.644485,168.874603 188.150833,146.387253 
	C188.298111,145.652344 188.953079,145.019150 189.685699,144.669281 
	C190.000000,185.583374 190.000000,226.166748 190.000000,267.000000 
	C159.646225,267.000000 129.291779,267.000000 98.468666,267.000000 
z"/>
<path fill="#010000" opacity="1.000000" stroke="none" 
	d="
M92.531342,1.000001 
	C92.028412,2.247563 91.288361,3.824824 90.050934,4.693837 
	C66.999893,20.881920 46.711426,39.926067 30.159864,62.779404 
	C17.277185,80.566986 7.145772,99.689339 2.835332,121.499611 
	C2.687303,122.248619 2.062258,122.903351 1.329775,123.301010 
	C1.000000,82.416634 1.000000,41.833263 1.000000,1.000000 
	C31.353771,1.000000 61.708225,1.000000 92.531342,1.000001 
z"/>
<path fill="#E4222A" opacity="1.000000" stroke="none" 
	d="
M85.149712,95.562347 
	C89.226036,95.196846 93.302353,94.831345 97.586334,94.939880 
	C97.484734,96.040794 97.175476,96.667679 96.618958,97.117706 
	C93.875168,94.994240 94.189003,97.978539 93.954376,98.638252 
	C90.685005,107.831367 87.694565,117.123589 84.434166,126.320038 
	C80.083542,138.591629 75.556938,150.800827 70.752083,163.028717 
	C69.926376,163.015823 69.454514,163.011032 68.982643,163.006256 
	C50.393749,147.057999 51.721279,117.698647 71.993019,102.243080 
	C75.633080,99.467834 80.269432,97.999344 84.775543,95.724800 
	C85.105293,95.522087 85.149712,95.562347 85.149712,95.562347 
z"/>
<path fill="#E4212A" opacity="1.000000" stroke="none" 
	d="
M96.866211,97.294556 
	C97.175476,96.667679 97.484734,96.040794 97.947159,95.099731 
	C114.132378,95.732391 125.361031,104.031044 131.650787,118.343353 
	C138.174942,133.189087 135.592697,147.255264 125.377350,159.862015 
	C124.544373,160.889999 123.531883,161.772522 121.996941,162.772003 
	C120.539940,162.231003 119.688805,161.640610 118.629089,160.852173 
	C118.304314,160.100418 118.188103,159.546753 118.136681,158.866470 
	C118.236145,158.431595 118.106697,158.207016 117.569275,157.801498 
	C116.325706,154.724472 115.287758,151.925003 114.332535,149.097580 
	C108.499992,131.833435 102.686234,114.562935 96.866211,97.294556 
z"/>
<path fill="#E3212A" opacity="1.000000" stroke="none" 
	d="
M118.837662,161.050232 
	C119.688805,161.640610 120.539940,162.231003 121.690216,162.908875 
	C110.022636,176.883652 84.596649,176.794174 70.893646,164.593079 
	C70.803368,164.211914 71.126991,163.875580 71.479965,163.930893 
	C79.709167,158.863312 87.585396,153.740433 95.579010,148.541183 
	C103.240135,153.754745 110.843620,158.929092 119.012604,164.488281 
	C118.920189,162.672073 118.878929,161.861145 118.837662,161.050232 
z"/>
<path fill="#010000" opacity="1.000000" stroke="none" 
	d="
M85.101471,95.551704 
	C85.097641,94.354630 85.097641,93.127937 85.097641,91.901253 
	C85.573372,91.971115 86.049110,92.040977 86.524841,92.110840 
	C86.073586,93.072884 85.622337,94.034920 85.160400,95.279655 
	C85.149712,95.562347 85.105293,95.522087 85.101471,95.551704 
z"/>
<path fill="#010000" opacity="1.000000" stroke="none" 
	d="
M104.627350,175.266800 
	C104.158913,175.814377 103.608604,176.172745 103.058304,176.531113 
	C102.918526,176.256424 102.778748,175.981720 102.638969,175.707031 
	C103.274475,175.497223 103.909981,175.287415 104.627350,175.266800 
z"/>
<path fill="#010000" opacity="1.000000" stroke="none" 
	d="
M90.026123,90.187225 
	C90.163849,90.046532 90.331863,90.080482 90.750183,90.173264 
	C90.685799,90.275360 90.371101,90.318611 90.026123,90.187225 
z"/>
<path fill="#E3212A" opacity="1.000000" stroke="none" 
	d="
M69.084114,163.262848 
	C69.454514,163.011032 69.926376,163.015823 70.738190,163.238876 
	C71.078125,163.457153 71.126991,163.875580 71.126991,163.875580 
	C71.126991,163.875580 70.803368,164.211914 70.636574,164.376984 
	C70.041718,164.201172 69.613655,163.860306 69.084114,163.262848 
z"/>
<path fill="#010000" opacity="1.000000" stroke="none" 
	d="
M100.492287,176.506714 
	C100.484947,176.486832 100.499626,176.526581 100.492287,176.506714 
z"/>
<path fill="#FEFAFA" opacity="1.000000" stroke="none" 
	d="
M71.479965,163.930893 
	C71.126991,163.875580 71.078125,163.457153 71.092026,163.246979 
	C75.556938,150.800827 80.083542,138.591629 84.434166,126.320038 
	C87.694565,117.123589 90.685005,107.831367 93.954376,98.638252 
	C94.189003,97.978539 93.875168,94.994240 96.618958,97.117706 
	C102.686234,114.562935 108.499992,131.833435 114.332535,149.097580 
	C115.287758,151.925003 116.325706,154.724472 117.569580,158.051208 
	C117.813736,158.565552 118.071892,158.993073 118.071884,158.993073 
	C118.188103,159.546753 118.304314,160.100418 118.629097,160.852173 
	C118.878929,161.861145 118.920189,162.672073 119.012604,164.488281 
	C110.843620,158.929092 103.240135,153.754745 95.579010,148.541183 
	C87.585396,153.740433 79.709167,158.863312 71.479965,163.930893 
z"/>
<path fill="#E3212A" opacity="1.000000" stroke="none" 
	d="
M118.136688,158.866470 
	C118.071892,158.993073 117.813736,158.565552 117.813431,158.315842 
	C118.106697,158.207016 118.236145,158.431595 118.136688,158.866470 
z"/>
</svg>