<svg version="1.1" id="Layer_1" xmlns="http://www.w3.org/2000/svg" xmlns:xlink="http://www.w3.org/1999/xlink" x="0px" y="0px"
	 width="100%" viewBox="0 0 426 413" enable-background="new 0 0 426 413" xml:space="preserve">
<path fill="#000000" opacity="1.000000" stroke="none" 
	d="
M215.260406,413.711975 
	C145.036469,414.000000 75.072899,413.975555 5.109528,414.079010 
	C1.926230,414.083740 0.888944,413.763397 0.892395,410.113495 
	C1.020132,275.017365 1.021945,139.921082 0.886494,4.824960 
	C0.882708,1.048788 2.115252,0.927364 5.171074,0.931303 
	C74.468193,1.020632 143.765457,1.000000 213.531342,1.000000 
	C214.135590,1.198199 214.271164,1.396397 214.381042,1.953295 
	C213.746460,3.754873 212.643555,4.753379 211.352066,5.549908 
	C181.278656,24.097801 157.503357,49.845596 133.510620,75.092415 
	C119.722702,89.601013 108.332176,106.297806 98.384438,123.941422 
	C91.326561,136.459503 85.497086,149.406219 80.161385,162.659760 
	C78.354652,167.147552 77.233208,171.839005 75.847015,176.833038 
	C75.155884,178.799164 74.315315,180.359528 74.597359,182.579559 
	C72.930344,202.730347 72.301537,222.478577 74.599899,242.631790 
	C74.672081,244.849258 74.798973,246.636841 75.928894,248.595245 
	C80.651047,257.633453 85.077606,266.356049 91.761208,273.757385 
	C101.230339,284.243317 113.384781,290.253174 126.323029,294.829315 
	C140.814804,299.954956 156.080994,298.974670 170.809052,297.451874 
	C188.213882,295.652344 204.575470,289.043182 220.305542,280.356750 
	C223.820450,277.936707 228.079559,277.519806 230.943665,274.078064 
	C231.555176,273.688232 231.912506,273.497223 232.513535,273.167908 
	C232.895432,272.898743 233.042282,272.784241 233.401901,272.484955 
	C233.757721,272.173798 233.900787,272.047455 234.268463,271.737000 
	C234.811981,271.318207 235.147858,271.110748 235.775757,270.803528 
	C237.060776,270.480347 238.017914,270.170593 239.022202,269.231262 
	C239.447144,268.919678 239.629059,268.810150 240.102402,268.571228 
	C241.345734,267.910400 242.170319,267.238129 242.969910,266.043091 
	C245.437469,263.512787 248.208420,261.921387 250.997650,259.786621 
	C265.962097,249.047287 275.618652,235.139038 279.690857,217.062225 
	C280.893585,210.789246 280.869720,204.875427 279.764343,198.597107 
	C276.639893,185.033539 271.185760,173.035400 261.021881,163.807220 
	C252.012512,155.627258 242.162704,148.649521 229.620331,146.887253 
	C226.960312,146.513504 224.720581,144.818298 221.653503,144.672852 
	C219.224869,145.094147 217.164505,145.208237 214.712250,144.580383 
	C213.771545,144.409088 213.246475,144.255722 212.401749,143.786011 
	C211.914749,143.295593 211.766663,143.055115 211.594696,142.389496 
	C211.723755,141.411926 211.983597,140.915634 212.663010,140.195938 
	C231.846771,130.915024 251.994507,126.717888 272.505157,129.247620 
	C293.417053,131.826874 315.921722,142.725082 321.297821,168.928604 
	C322.231934,173.481613 323.035675,178.033203 323.760071,183.025650 
	C323.368195,186.767593 323.388763,190.098343 323.744568,193.831467 
	C322.703979,206.684677 320.171417,218.836243 316.060333,230.648865 
	C308.757141,251.633575 297.356689,270.442047 283.666931,287.655304 
	C269.475281,305.499725 253.531525,321.832245 234.733856,335.069031 
	C230.250885,338.225830 226.092636,341.819427 221.313934,344.589722 
	C218.436859,346.257538 216.932358,348.876434 216.995178,352.469177 
	C217.303436,370.104309 216.512070,387.748505 217.436249,405.381836 
	C217.583954,408.199951 217.524597,411.070251 215.260406,413.711975 
z"/>
<path fill="#000000" opacity="1.000000" stroke="none" 
	d="
M220.737411,1.299253 
	C288.297516,1.000000 355.595062,1.025537 422.892426,0.920587 
	C426.079803,0.915617 427.110870,1.242462 427.107422,4.888400 
	C426.979950,139.983047 426.978119,275.077881 427.113251,410.172485 
	C427.117035,413.943359 425.892639,414.073425 422.831543,414.069244 
	C356.533569,413.978271 290.235413,414.000000 223.468658,414.000000 
	C220.852158,409.424316 224.311874,407.289062 227.292801,405.925018 
	C242.547897,398.944427 254.492203,387.645020 266.369629,376.321686 
	C277.085785,366.105499 287.547485,355.605927 297.794891,344.918274 
	C313.162201,328.890747 325.922638,310.941467 337.160156,291.760010 
	C345.708313,277.169128 352.321777,261.851410 357.919861,245.992065 
	C358.984894,242.974869 358.939026,239.755081 360.095581,236.416534 
	C360.720703,234.742874 361.406616,233.460297 361.347504,231.589050 
	C363.232849,217.017639 363.391327,202.766373 362.395477,188.523865 
	C362.138123,184.843826 363.193115,181.283401 362.489044,177.601578 
	C359.953247,164.340515 353.972595,153.042328 344.786499,143.069565 
	C335.439819,132.922409 324.777954,125.057976 311.596680,120.979752 
	C304.500763,118.784325 297.390137,116.354111 289.690399,116.981049 
	C285.556366,117.317665 281.368164,117.162170 277.211639,117.019035 
	C262.287598,116.505127 248.345581,120.652855 234.635635,125.886009 
	C228.266220,128.317261 222.029068,131.064819 215.767456,134.627792 
	C207.667648,138.647476 200.527145,143.502274 193.272217,148.787903 
	C190.634369,151.289062 188.048172,153.302216 184.970551,155.248138 
	C169.752502,165.992813 159.831345,179.874557 156.194778,198.375992 
	C155.126038,204.350662 155.247452,209.962952 156.055847,215.947723 
	C158.588272,232.691116 167.626862,245.167374 179.860657,256.125793 
	C180.845779,257.038269 181.697983,257.503143 182.900452,258.123352 
	C188.109283,261.501892 193.330002,264.049683 198.641678,266.419312 
	C201.422302,267.659790 204.355576,268.057617 207.391739,267.976929 
	C214.527084,267.787292 221.680771,268.386353 229.191025,267.516022 
	C230.107681,267.619141 230.616165,267.745789 231.436935,268.156433 
	C232.169189,268.760529 232.324112,269.228638 232.052795,270.122559 
	C231.397049,271.063293 230.721710,271.411285 229.790009,272.026215 
	C228.844193,272.583893 228.199310,272.927429 227.154785,273.270233 
	C224.253693,274.178650 221.894897,275.438049 219.106934,276.675232 
	C201.045975,284.563049 182.298050,288.771271 163.352371,285.755920 
	C139.945480,282.030609 121.454071,273.085449 114.759094,246.570175 
	C113.572838,241.872025 112.769539,237.174789 112.112579,231.997314 
	C112.645172,228.252670 112.630623,224.914429 112.252457,221.168839 
	C112.599121,207.656235 116.142578,195.212738 120.584106,183.023315 
	C130.830261,154.903625 147.502792,130.913284 168.113419,109.436501 
	C182.220642,94.736427 197.547302,81.556885 214.692398,70.516609 
	C217.905594,68.447525 219.050858,65.441887 219.027573,61.582962 
	C218.923050,44.276535 218.967072,26.968857 218.991989,9.661662 
	C218.994843,7.676359 218.750229,5.658199 219.589691,3.347323 
	C219.872131,2.465375 220.136841,2.010633 220.737411,1.299253 
z"/>
<path fill="#E6212A" opacity="1.000000" stroke="none" 
	d="
M362.216309,236.587311 
	C360.518341,241.722397 360.094635,246.829758 358.069275,251.605118 
	C352.429474,264.902649 347.273773,278.276276 339.654205,290.802612 
	C334.390259,299.456268 329.208527,308.312714 323.690033,316.803253 
	C320.226929,322.131409 315.745728,327.077667 311.675262,332.149994 
	C297.885925,349.333191 281.265656,363.755951 265.930817,379.423492 
	C258.431702,387.085388 249.994949,393.725555 241.069473,399.830078 
	C236.996506,402.615692 233.500488,405.724121 228.473892,406.933746 
	C225.431458,407.665924 223.695145,410.772705 222.608780,413.792664 
	C220.629440,414.000000 218.258896,414.000000 215.444168,414.000000 
	C215.008835,395.447937 215.606461,376.869446 214.775696,358.355072 
	C214.366272,349.230774 217.301743,343.747101 224.975845,339.305939 
	C231.307556,335.641693 236.824127,330.542511 242.721283,326.178711 
	C253.746628,318.020142 262.639343,307.807587 272.049072,298.139740 
	C282.622040,287.276764 290.975891,274.575165 299.061554,261.722504 
	C302.947571,255.545425 306.769470,249.156967 309.182495,242.526016 
	C311.517273,236.110062 314.542542,229.897385 316.305664,223.133575 
	C318.666321,214.077255 319.990082,204.873795 322.109619,195.372253 
	C322.839172,191.249573 322.382233,187.521988 322.294678,183.439590 
	C320.975830,177.451859 320.221069,171.708725 318.568787,166.236588 
	C315.113861,154.794174 308.522095,145.842911 297.710815,139.875122 
	C290.086700,135.666641 281.931152,132.386826 273.739014,131.045258 
	C267.098145,129.957748 259.542175,129.256500 252.586853,131.808029 
	C252.132187,131.974823 251.597443,132.008011 251.106949,131.980118 
	C239.445862,131.316986 229.111969,136.018036 218.573502,139.943390 
	C217.061646,140.506546 215.364410,140.572021 213.377197,141.015686 
	C211.549164,140.996780 210.432709,142.573898 208.561096,141.812408 
	C208.049515,141.510544 207.870178,141.350876 207.546616,140.862274 
	C207.509308,136.606262 212.343475,137.394958 213.653809,134.180603 
	C217.936752,129.990616 223.292587,128.343338 228.249344,126.124214 
	C234.871643,123.159439 241.765976,120.788330 248.602386,118.325821 
	C250.260147,117.728691 252.194534,117.947006 253.923660,117.493065 
	C268.804901,113.586327 284.106232,114.124718 299.019440,115.442131 
	C309.625397,116.379051 320.162445,120.844254 329.325775,126.963371 
	C341.831116,135.314209 351.995636,145.941299 358.816040,159.551605 
	C361.835907,165.577942 364.937286,172.036392 364.671173,178.492508 
	C364.206970,189.755417 366.046448,201.007278 364.444611,212.222946 
	C363.658752,217.725372 365.902557,223.290726 364.047638,228.791031 
	C363.741852,229.697662 363.946228,230.776016 362.824219,231.834747 
	C362.418488,233.556152 362.575714,234.943192 362.216309,236.587311 
z"/>
<path fill="#680E12" opacity="1.000000" stroke="none" 
	d="
M220.562500,1.000000 
	C220.986694,1.462363 220.973389,1.924726 220.937195,2.734617 
	C218.619232,5.087058 216.341614,5.344106 214.046387,2.532298 
	C214.036423,1.875423 214.069885,1.700224 214.051666,1.262513 
	C216.041672,1.000000 218.083328,1.000000 220.562500,1.000000 
z"/>
<path fill="#E6212A" opacity="1.000000" stroke="none" 
	d="
M213.631805,2.039494 
	C215.887100,3.380572 218.077347,2.648499 220.513672,3.019884 
	C220.945251,23.558043 220.867401,44.035164 221.097931,64.508812 
	C221.144592,68.654793 218.419525,70.948685 215.894852,72.354088 
	C209.576599,75.871239 204.647949,81.198784 198.752365,84.949646 
	C185.139908,93.610130 174.873810,105.681885 163.862930,116.940369 
	C153.241989,127.800140 144.805298,140.464630 136.852951,153.473038 
	C132.958450,159.843643 129.499313,166.464218 126.403130,173.121170 
	C124.319824,177.600388 122.058586,182.415024 121.550468,187.845322 
	C121.258125,190.969467 118.799957,194.126038 117.965477,197.568512 
	C116.234192,204.710587 114.875984,211.911850 113.889862,219.625153 
	C113.160629,223.755142 113.622871,227.488251 113.675858,231.585083 
	C115.230217,240.065552 116.144012,248.402176 120.116348,255.711533 
	C124.471016,263.724426 129.452911,270.941345 138.449478,275.316956 
	C146.255295,279.113434 154.330307,282.834412 162.471542,284.022400 
	C170.875244,285.248657 179.917374,284.790466 188.675186,283.732880 
	C197.253357,282.696960 204.873642,278.396484 213.302032,277.058899 
	C215.207733,276.756470 215.988617,274.376678 218.510696,274.918610 
	C221.845108,275.525848 224.160172,273.197205 227.296783,273.300873 
	C229.387634,275.214630 228.216965,276.129791 226.764786,277.338043 
	C225.396576,278.476410 223.246735,278.536194 222.261826,280.754425 
	C220.519516,284.287231 216.880386,284.673126 214.299500,285.819641 
	C206.283371,289.380768 197.985321,292.358307 189.679626,295.295074 
	C172.497482,301.370422 154.880508,300.624359 137.465683,299.605988 
	C126.597893,298.970459 116.342674,293.621277 106.630440,288.152954 
	C92.856789,280.397888 83.382080,268.924744 77.086304,254.658051 
	C76.389641,253.079361 74.393654,252.276489 74.328003,250.036240 
	C72.972702,248.215820 73.769341,246.399307 73.301468,244.358109 
	C71.795982,240.368576 70.926636,236.822235 71.493629,232.715179 
	C72.071121,228.532135 71.071213,224.157822 71.148071,219.874176 
	C71.371414,207.426376 71.788177,194.982040 72.439499,182.273285 
	C74.299065,180.483521 73.096840,178.525558 73.754738,176.487381 
	C75.570450,168.946991 78.499916,162.189743 81.037491,155.303589 
	C84.911545,144.790695 89.736244,134.716782 95.572212,125.153488 
	C98.932106,119.647682 101.941902,113.953850 105.577881,108.581680 
	C110.620163,101.131683 116.076469,94.038780 121.456406,86.847633 
	C136.986359,66.089333 156.633118,49.325771 174.784592,31.148560 
	C180.608505,25.316368 187.089966,19.723415 194.524033,15.393657 
	C197.639450,13.579166 200.722397,10.712255 203.629715,8.077568 
	C206.395752,5.570910 210.016006,4.006858 213.631805,2.039494 
z"/>
<path fill="#E6222B" opacity="1.000000" stroke="none" 
	d="
M179.166260,257.604858 
	C174.793915,253.663162 170.082214,249.970840 166.828568,245.269440 
	C162.185150,238.559860 156.558746,232.036209 156.117630,223.283554 
	C156.015533,221.257965 155.027298,220.132660 154.139282,218.345566 
	C154.869644,211.264313 154.363358,204.564545 154.324600,197.456909 
	C156.338684,191.690796 157.175049,185.892578 159.849564,180.715530 
	C165.439407,169.895279 173.331467,161.132324 183.642639,154.086792 
	C188.241287,154.197449 190.666824,150.432312 194.572845,149.035416 
	C198.142853,147.586197 201.751465,147.347763 205.117432,145.325424 
	C207.347046,144.344086 209.336807,143.686905 211.622269,142.843094 
	C212.436127,142.873489 212.905548,142.960983 213.729584,143.119324 
	C215.448730,144.580994 217.241028,145.594055 218.060364,147.931961 
	C218.515869,152.277649 216.620193,155.742767 215.403397,159.296494 
	C208.478729,179.520203 201.425522,199.700241 194.419739,219.896423 
	C193.659988,222.086594 192.873856,224.282700 191.110748,226.372131 
	C190.146820,227.424530 189.264526,228.133377 189.636108,229.757355 
	C188.982529,238.337479 184.900635,245.504120 182.316132,253.537964 
	C181.322922,255.091141 180.527954,256.346222 179.166260,257.604858 
z"/>
<path fill="#E7222B" opacity="1.000000" stroke="none" 
	d="
M230.182098,268.678650 
	C219.793060,270.654480 209.527771,271.178101 199.563965,268.797852 
	C193.222900,267.283081 187.368973,263.796814 182.022644,259.318665 
	C180.863831,257.563385 180.258881,256.050018 181.539032,254.029907 
	C181.878006,253.429977 182.015091,253.097473 182.262009,252.892242 
	C192.480270,244.398926 203.494949,237.030914 214.943268,230.345215 
	C218.556046,228.235397 222.016998,230.357956 225.074234,232.536362 
	C233.049454,238.219040 241.158844,243.704758 249.409164,248.975952 
	C250.644012,249.764893 251.715668,251.645889 253.950974,250.173492 
	C255.473694,244.198776 260.520599,240.939072 263.218933,236.052200 
	C273.543854,217.353180 274.011536,198.779800 263.697998,180.045395 
	C254.775406,163.837616 240.299988,156.763474 222.126312,155.172607 
	C220.789291,154.550278 220.193146,153.740875 219.754349,152.358551 
	C219.624557,150.527084 219.920868,149.069855 219.759674,147.240753 
	C219.992996,145.646606 220.469696,144.554398 221.657715,143.440857 
	C227.921204,145.198257 234.578445,144.362473 240.305450,147.874435 
	C244.647064,150.536850 249.193176,152.881226 253.591019,155.467300 
	C262.448517,160.675842 268.116760,168.484772 273.531921,176.579590 
	C276.393738,180.857574 278.510559,185.716446 279.178955,191.054672 
	C279.404266,192.854279 280.522369,194.542099 281.133850,196.589294 
	C282.052521,203.654083 281.287262,210.446396 281.239380,217.661560 
	C279.753876,223.236160 278.513733,228.398087 276.245483,233.201279 
	C270.900726,244.519196 262.647247,253.390381 252.371826,260.930481 
	C248.066223,261.266083 245.319580,264.173431 241.639099,265.866638 
	C240.295837,266.550903 239.058136,266.340454 237.727600,267.071167 
	C236.357010,267.531891 235.200333,267.472931 233.880005,268.109772 
	C232.519867,268.245209 231.426666,267.792145 230.182098,268.678650 
z"/>
<path fill="#680E12" opacity="1.000000" stroke="none" 
	d="
M206.222595,145.810364 
	C203.509064,149.431717 199.407364,149.156677 195.535095,150.424622 
	C193.842331,150.436218 192.896347,149.832321 192.168182,148.379272 
	C193.396881,145.287155 196.228714,144.350204 198.533218,142.869492 
	C203.354355,139.771759 208.347702,136.942032 213.562469,133.947693 
	C213.578873,137.573044 209.621246,137.689911 207.834351,140.339401 
	C207.644348,140.907913 207.557724,141.144516 207.843140,141.314667 
	C209.674622,141.072983 211.134079,140.897766 212.797470,140.943039 
	C212.799515,141.529007 212.597595,141.894485 212.188309,142.503708 
	C210.419373,144.301086 208.387878,144.908508 206.222595,145.810364 
z"/>
<path fill="#B1181F" opacity="1.000000" stroke="none" 
	d="
M222.327606,280.958801 
	C221.480850,276.970978 227.027527,277.738220 227.134506,274.120117 
	C226.617050,273.502930 226.488831,273.055176 226.765335,272.256317 
	C227.460236,271.683868 227.941391,271.407867 228.710281,271.063599 
	C229.575272,270.985931 230.108475,270.838776 230.808594,270.328766 
	C231.361206,269.951355 231.682571,269.735565 232.113007,269.246948 
	C232.391785,268.786407 232.561523,268.598724 233.079865,268.258545 
	C234.191055,267.914581 234.943268,267.920258 235.996719,268.447235 
	C236.455383,268.885651 236.597046,269.101624 236.835388,269.692596 
	C236.951538,270.593231 236.838226,271.088501 236.402985,271.888916 
	C235.883865,272.355682 235.553314,272.486694 235.033600,272.807861 
	C234.717850,273.178711 234.591263,273.359375 234.263641,273.802917 
	C234.062592,274.065765 233.999008,274.006104 234.029602,274.038818 
	C233.861633,274.174683 233.663055,274.277771 233.162872,274.233643 
	C230.430328,277.823212 226.253738,278.932983 222.327606,280.958801 
z"/>
<path fill="#781114" opacity="1.000000" stroke="none" 
	d="
M240.711014,265.047424 
	C244.074738,262.498688 247.174423,260.161774 251.706589,260.988953 
	C249.546951,262.926270 247.040512,264.780884 244.261658,266.815308 
	C242.231293,267.896637 240.839584,267.951324 240.711014,265.047424 
z"/>
<path fill="#E84752" opacity="1.000000" stroke="none" 
	d="
M221.487518,143.119781 
	C221.763611,144.285965 221.610397,145.381073 221.226471,146.717438 
	C220.532990,147.448929 220.104752,147.972351 219.284149,148.553329 
	C218.517410,148.749954 218.075729,148.692017 217.368652,148.335968 
	C216.004608,146.786697 213.418640,146.508118 214.071793,143.552521 
	C216.408859,143.143005 218.733536,143.095871 221.487518,143.119781 
z"/>
<path fill="#FF3333" opacity="1.000000" stroke="none" 
	d="
M281.400269,217.860138 
	C281.029022,211.351089 281.022430,204.599304 281.025574,197.372528 
	C283.111542,203.739624 281.678406,210.705261 281.400269,217.860138 
z"/>
<path fill="#680E12" opacity="1.000000" stroke="none" 
	d="
M240.524261,264.624146 
	C241.106842,265.954224 241.757828,266.877960 243.621948,266.974426 
	C243.159653,267.847595 242.330078,268.700134 241.201538,269.553040 
	C240.055542,269.062256 239.117950,269.341797 237.893036,269.129608 
	C237.365250,268.890839 237.169769,268.761261 236.762878,268.349121 
	C236.421127,267.605957 236.419830,267.144958 236.774292,266.413940 
	C237.723953,264.949860 238.931183,264.780548 240.524261,264.624146 
z"/>
<path fill="#000000" opacity="1.000000" stroke="none" 
	d="
M206.448914,146.064880 
	C205.929276,146.020721 205.736649,145.994705 205.639496,145.884521 
	C205.461060,145.682190 205.338882,145.430267 205.193268,145.199005 
	C207.241379,144.362885 209.289474,143.526779 211.659256,142.719055 
	C211.980927,142.747452 211.966522,142.756897 211.966614,142.771454 
	C211.283905,145.504181 208.727692,145.263245 206.448914,146.064880 
z"/>
<path fill="#FF3333" opacity="1.000000" stroke="none" 
	d="
M322.079559,183.523193 
	C323.680847,186.747879 323.045685,190.517136 322.402954,194.614136 
	C322.132233,191.291916 322.077118,187.633026 322.079559,183.523193 
z"/>
<path fill="#680E12" opacity="1.000000" stroke="none" 
	d="
M236.530640,272.237000 
	C236.162399,271.747742 236.110367,271.270844 236.075317,270.435059 
	C236.360855,269.716339 236.697281,269.436188 237.419952,269.163971 
	C238.197464,269.104736 238.625336,269.202789 239.263184,269.637085 
	C239.134842,271.251251 238.103912,271.876526 236.530640,272.237000 
z"/>
<path fill="#F10000" opacity="1.000000" stroke="none" 
	d="
M73.074898,244.414917 
	C74.446098,245.527145 73.863441,247.359924 74.006210,249.452942 
	C71.999550,248.496597 73.390808,246.478333 73.074898,244.414917 
z"/>
<path fill="#781114" opacity="1.000000" stroke="none" 
	d="
M239.850983,269.813599 
	C239.141693,269.877228 238.788223,269.877197 238.166763,269.861511 
	C237.597244,269.492676 237.486740,269.083313 237.736450,268.356110 
	C238.950897,268.090942 240.028381,267.918213 240.794067,269.279236 
	C240.670639,269.618896 240.438736,269.684418 239.850983,269.813599 
z"/>
<path fill="#F10000" opacity="1.000000" stroke="none" 
	d="
M73.585007,176.293304 
	C73.839043,177.946945 74.440102,179.826645 73.051178,181.764801 
	C72.907463,180.153763 73.064995,178.297272 73.585007,176.293304 
z"/>
<path fill="#8D1519" opacity="1.000000" stroke="none" 
	d="
M234.291962,273.971191 
	C234.139893,273.767670 234.286285,273.508636 234.673111,273.143341 
	C234.941757,273.366241 234.834061,273.659119 234.291962,273.971191 
z"/>
<path fill="#8D1519" opacity="1.000000" stroke="none" 
	d="
M232.961044,274.301819 
	C233.060959,274.076172 233.260666,274.065887 233.760284,274.063568 
	C233.872177,274.545502 233.663727,274.973663 232.961044,274.301819 
z"/>
<path fill="#8D1519" opacity="1.000000" stroke="none" 
	d="
M191.797150,148.230469 
	C193.308014,148.152496 194.273178,148.680817 194.987885,150.148895 
	C191.899231,152.476364 188.909027,155.159348 184.298248,154.096786 
	C186.485260,152.114578 189.001770,150.268906 191.797150,148.230469 
z"/>
<path fill="#FF3333" opacity="1.000000" stroke="none" 
	d="
M154.110153,197.501312 
	C155.785019,203.748718 154.962692,210.508499 154.406143,217.602936 
	C154.135635,211.285919 154.083130,204.623810 154.110153,197.501312 
z"/>
<path fill="#8D1519" opacity="1.000000" stroke="none" 
	d="
M226.604126,271.994873 
	C226.978165,272.390930 226.977280,272.821991 226.956329,273.574524 
	C224.467087,274.438263 222.267990,276.649933 219.178955,274.986389 
	C221.340851,273.921570 223.785019,272.975739 226.604126,271.994873 
z"/>
<path fill="#E84752" opacity="1.000000" stroke="none" 
	d="
M181.729523,254.037857 
	C182.095764,255.841721 182.154251,257.209564 182.051422,258.803894 
	C181.088272,258.707336 180.286407,258.384247 179.169495,257.933655 
	C179.006836,256.561127 178.648682,255.176300 180.136963,254.113388 
	C180.764709,253.875046 181.093246,253.738449 181.729523,254.037857 
z"/>
<path fill="#FF3333" opacity="1.000000" stroke="none" 
	d="
M113.889740,231.509857 
	C112.376053,228.264740 112.931015,224.491592 113.596863,220.385742 
	C113.864342,223.718613 113.916679,227.388168 113.889740,231.509857 
z"/>
<path fill="#8D1519" opacity="1.000000" stroke="none" 
	d="
M233.195984,268.754700 
	C232.962845,269.017731 232.588089,269.049530 232.405060,269.011780 
	C231.707550,268.979034 231.193039,268.984009 230.298950,268.923523 
	C230.243088,267.500458 231.175934,267.008392 232.832901,267.108459 
	C233.441650,267.573700 233.524643,268.015930 233.195984,268.754700 
z"/>
<path fill="#F10000" opacity="1.000000" stroke="none" 
	d="
M362.362152,236.750778 
	C362.088715,235.494781 362.181091,234.135544 362.422180,232.477737 
	C363.097809,233.651947 363.236481,235.138351 362.362152,236.750778 
z"/>
<path fill="#8D1519" opacity="1.000000" stroke="none" 
	d="
M230.731720,270.110931 
	C230.761368,270.974792 230.558411,271.889191 229.169342,271.182495 
	C229.221466,270.300201 229.753204,270.072388 230.731720,270.110931 
z"/>
<path fill="#FDF9F9" opacity="1.000000" stroke="none" 
	d="
M182.332169,254.269928 
	C181.772156,254.390915 181.507019,254.307968 180.839020,254.118317 
	C183.181808,246.068085 185.927429,238.124527 188.687286,229.790756 
	C188.139526,228.348053 188.000732,227.312805 189.226318,226.202118 
	C194.151596,217.039230 196.622314,207.226593 200.045502,197.772812 
	C205.918701,181.552872 211.373169,165.181290 217.047195,148.507202 
	C217.495407,148.073959 217.899841,148.006912 218.598740,148.042358 
	C220.063644,148.583649 220.561752,149.451782 220.336853,150.950073 
	C220.338806,152.101883 220.511322,152.976273 220.938202,154.079681 
	C223.772980,154.631927 223.991013,156.904541 224.610825,158.681137 
	C234.415848,186.785202 244.069382,214.941803 253.812256,243.067490 
	C254.618347,245.394516 255.195724,247.808472 254.865936,250.702454 
	C254.716644,252.036026 255.059250,253.470688 254.574753,253.850616 
	C253.435059,254.744354 252.541107,253.415131 251.635315,252.799606 
	C241.612946,245.988968 231.543015,239.245956 221.617493,232.296753 
	C218.931564,230.416275 216.928360,230.174072 214.112381,232.189026 
	C203.720108,239.625092 193.137863,246.795624 182.332169,254.269928 
z"/>
<path fill="#F10000" opacity="1.000000" stroke="none" 
	d="
M189.255127,226.161057 
	C189.438843,226.994141 189.252136,227.900894 188.883453,229.104095 
	C187.447876,228.269211 186.371063,227.148102 189.255127,226.161057 
z"/>
<path fill="#E6222B" opacity="1.000000" stroke="none" 
	d="
M255.083832,250.995392 
	C249.780914,237.168762 244.723480,223.287628 239.864914,209.337219 
	C233.579147,191.288910 227.452026,173.185349 221.224579,154.707138 
	C231.476135,151.988617 239.978607,156.647247 248.467270,161.301834 
	C261.150208,168.256302 267.111450,179.884354 271.150116,193.132065 
	C275.372498,206.982422 273.054382,220.204117 267.237640,232.704605 
	C265.028870,237.451370 263.391205,243.570282 257.559326,246.033722 
	C255.183502,247.037323 258.222015,250.218628 255.083832,250.995392 
z"/>
<path fill="#000000" opacity="1.000000" stroke="none" 
	d="
M233.342316,268.992920 
	C233.031555,268.607849 233.100281,268.197937 233.174561,267.476532 
	C234.230972,266.844421 235.281830,266.523834 236.666748,266.173767 
	C237.003418,266.549683 237.006027,266.955048 236.977509,267.663696 
	C236.825409,268.140747 236.704437,268.314575 236.267685,268.523010 
	C235.208527,268.694458 234.465164,268.831299 233.342316,268.992920 
z"/>
<path fill="#E6222B" opacity="1.000000" stroke="none" 
	d="
M220.477020,151.068527 
	C219.748032,150.390411 219.329773,149.553329 218.902359,148.430573 
	C219.383636,147.773636 219.874084,147.402390 220.680161,146.994904 
	C220.937119,148.276199 222.295654,149.668350 220.477020,151.068527 
z"/>
<path fill="#FDF9F9" opacity="1.000000" stroke="none" 
	d="
M255.453064,255.440338 
	C255.460907,255.479614 255.445206,255.401047 255.453064,255.440338 
z"/>
<path fill="#E6212A" opacity="1.000000" stroke="none" 
	d="
M204.434235,143.429184 
	C203.713776,143.666931 203.323822,143.484116 203.379715,142.914856 
	C203.399353,142.714661 203.740341,142.405960 203.951111,142.391754 
	C204.504395,142.354477 204.724609,142.713120 204.434235,143.429184 
z"/>
<path fill="#E6212A" opacity="1.000000" stroke="none" 
	d="
M208.092758,141.105133 
	C207.810501,141.794113 207.261780,142.330933 206.655045,141.769897 
	C206.151443,141.304230 206.783524,141.017029 207.457123,140.736710 
	C207.730957,140.671326 207.970337,140.962067 208.092758,141.105133 
z"/>
<path fill="#8D1519" opacity="1.000000" stroke="none" 
	d="
M235.973938,268.938446 
	C236.073181,268.296204 236.272842,268.127625 236.748642,268.009369 
	C236.946381,267.966919 237.438690,268.038300 237.685608,268.062378 
	C237.939102,268.478516 237.945663,268.870575 237.925476,269.554260 
	C237.497574,269.901733 237.096390,269.957520 236.393738,270.044769 
	C236.060181,269.823914 236.028076,269.571594 235.973938,268.938446 
z"/>
</svg>