<?xml version="1.0" standalone="no"?>
<!DOCTYPE svg PUBLIC "-//W3C//DTD SVG 20010904//EN"
 "http://www.w3.org/TR/2001/REC-SVG-20010904/DTD/svg10.dtd">
<svg version="1.0" xmlns="http://www.w3.org/2000/svg"
 width="192.000000pt" height="81.000000pt" viewBox="0 0 192.000000 81.000000"
 preserveAspectRatio="xMidYMid meet">

<g transform="translate(0.000000,81.000000) scale(0.100000,-0.100000)"
fill="#000000" stroke="none">
<path d="M350 706 c0 -18 -57 -196 -66 -205 -2 -3 -30 20 -60 50 l-56 54 30
-61 30 -60 -74 -24 c-41 -13 -72 -25 -69 -28 2 -2 47 10 100 28 l96 33 40 -39
40 -39 -153 -5 -153 -5 88 -28 c64 -20 86 -31 79 -40 -22 -30 -63 -109 -53
-103 6 4 23 30 37 58 23 45 28 49 51 43 22 -5 34 1 70 37 l43 42 0 141 c0 77
-5 147 -10 155 -8 13 -10 12 -10 -4z"/>
<path d="M386 688 c3 -13 20 -61 37 -106 l30 -84 53 53 c29 29 52 54 50 56 -1
2 -28 -11 -58 -27 l-56 -31 -27 81 c-15 44 -29 80 -31 80 -3 0 -2 -10 2 -22z"/>
<path d="M800 475 l0 -216 55 3 56 3 2 213 2 212 -57 0 -58 0 0 -215z"/>
<path d="M1110 674 c-146 -63 -176 -262 -54 -362 129 -107 328 -24 342 142 5
66 -11 117 -51 163 -59 67 -159 91 -237 57z m153 -134 c58 -65 13 -170 -74
-170 -28 0 -77 27 -89 49 -27 51 1 129 54 152 34 14 79 1 109 -31z"/>
<path d="M1460 475 l0 -215 60 0 59 0 3 105 3 105 83 -105 84 -105 49 0 49 0
0 215 0 215 -60 0 -59 0 -3 -107 -3 -108 -83 108 -83 107 -50 0 -49 0 0 -215z"/>
<path d="M180 615 c0 -7 101 -57 106 -53 2 2 -21 16 -51 31 -30 15 -55 25 -55
22z"/>
<path d="M533 535 c-26 -52 -29 -55 -56 -49 -24 5 -35 0 -63 -27 -19 -18 -34
-37 -34 -41 0 -4 66 -8 147 -8 81 0 143 4 137 8 -5 4 -42 18 -81 31 l-73 22
30 60 c17 32 28 59 25 59 -3 0 -17 -25 -32 -55z"/>
<path d="M370 255 c1 -166 1 -166 50 -15 14 41 26 77 28 79 1 3 30 -22 63 -55
l61 -59 -32 64 c-17 34 -29 65 -27 67 2 2 35 16 73 29 38 14 56 23 39 19 -16
-3 -57 -16 -91 -30 -33 -13 -67 -24 -74 -24 -8 0 -31 17 -52 37 l-38 37 0
-149z"/>
<path d="M220 265 c-30 -30 -52 -55 -49 -55 3 0 30 13 60 30 30 16 57 30 60
30 3 0 17 -37 30 -82 12 -45 24 -77 26 -71 5 14 -57 203 -66 203 -4 0 -31 -25
-61 -55z"/>
<path d="M440 265 c0 -2 23 -16 50 -30 28 -14 50 -23 50 -20 0 2 -22 16 -50
30 -27 14 -50 23 -50 20z"/>
<path d="M800 185 c0 -14 5 -25 10 -25 6 0 10 11 10 25 0 14 -4 25 -10 25 -5
0 -10 -11 -10 -25z"/>
<path d="M831 178 c0 -26 2 -29 8 -14 5 14 10 16 15 8 12 -20 26 -13 26 13 0
14 -5 25 -11 25 -5 0 -7 -4 -4 -10 3 -5 1 -10 -4 -10 -6 0 -11 5 -11 10 0 6
-4 10 -10 10 -5 0 -10 -15 -9 -32z"/>
<path d="M890 196 c0 -8 6 -17 13 -19 9 -4 8 -8 -3 -16 -19 -13 -1 -14 20 -1
13 8 12 11 -5 24 -20 15 -20 15 3 16 15 0 22 -6 22 -20 0 -29 17 -25 22 5 5
23 2 25 -33 25 -27 0 -39 -4 -39 -14z"/>
<path d="M980 179 c0 -17 4 -28 10 -24 6 3 10 15 10 26 0 29 18 23 22 -8 3
-27 4 -27 9 5 5 30 4 32 -23 32 -25 0 -28 -4 -28 -31z"/>
<path d="M1050 191 c0 -22 25 -45 40 -36 5 3 9 18 9 33 -2 24 -2 24 -6 5 -5
-28 -23 -30 -23 -3 0 11 -4 20 -10 20 -5 0 -10 -8 -10 -19z"/>
<path d="M1118 185 c2 -14 8 -25 12 -25 4 0 10 11 12 25 4 19 1 25 -12 25 -13
0 -16 -6 -12 -25z"/>
<path d="M1162 183 c4 -32 25 -43 23 -11 -1 13 3 26 9 30 6 5 1 8 -12 8 -19 0
-23 -5 -20 -27z"/>
<path d="M1227 203 c-13 -12 -7 -41 10 -47 21 -9 46 16 37 37 -6 17 -35 23
-47 10z m33 -18 c0 -8 -4 -15 -9 -15 -13 0 -22 16 -14 24 11 11 23 6 23 -9z"/>
<path d="M1290 179 c0 -28 1 -29 17 -14 13 13 13 19 3 25 -10 6 -10 9 1 13 10
4 9 6 -3 6 -14 1 -18 -7 -18 -30z"/>
<path d="M1351 178 c0 -26 2 -29 8 -14 5 14 10 16 15 8 12 -20 26 -13 26 13 0
14 -5 25 -11 25 -5 0 -7 -4 -4 -10 3 -5 1 -10 -4 -10 -6 0 -11 5 -11 10 0 6
-4 10 -10 10 -5 0 -10 -15 -9 -32z"/>
<path d="M1416 188 c-9 -35 -7 -41 7 -29 10 8 17 7 25 -1 15 -15 15 -7 2 26
-12 32 -26 33 -34 4z"/>
<path d="M1465 188 c12 -39 24 -43 36 -12 l12 29 7 -30 8 -30 1 33 c1 36 -21
44 -38 15 -10 -17 -10 -17 -11 0 0 9 -5 17 -11 17 -6 0 -8 -9 -4 -22z"/>
<path d="M1544 195 c-7 -18 12 -45 32 -45 8 0 14 8 14 18 0 13 -2 14 -9 4 -6
-10 -10 -10 -21 2 -10 13 -9 17 11 25 l24 10 -23 0 c-12 1 -25 -6 -28 -14z"/>
<path d="M1610 184 c-13 -33 -13 -41 1 -27 6 6 18 9 25 6 15 -6 18 6 8 31 -9
24 -23 19 -34 -10z"/>
<path d="M1656 202 c7 -4 14 -18 17 -32 4 -25 4 -25 6 3 1 30 21 38 21 8 0
-11 5 -23 10 -26 6 -4 10 7 10 24 0 29 -2 31 -37 31 -21 0 -33 -4 -27 -8z"/>
<path d="M1737 203 c-13 -12 -7 -44 9 -50 20 -7 45 22 37 43 -5 14 -35 19 -46
7z m33 -17 c0 -8 -4 -17 -9 -21 -12 -7 -24 12 -16 25 9 15 25 12 25 -4z"/>
<path d="M1795 185 c2 -30 15 -46 16 -19 0 10 3 13 6 7 9 -23 33 -14 33 12 0
14 -4 25 -10 25 -5 0 -10 -5 -10 -12 0 -9 -3 -9 -12 0 -18 18 -24 15 -23 -13z"/>
</g>
</svg>
